<?xml version="1.0" encoding="UTF-8"?><svg id="Laag_1" xmlns="http://www.w3.org/2000/svg" viewBox="0 0 105.946 19.386"><defs><style>.cls-1{fill:#fdf9f1;}.cls-2{fill:#dcb556;}.cls-3{fill:#3c7f72;}</style></defs><path class="cls-3" d="M101.561,4.664c3.557-6.219-4.443-6.219-.891,0-3.552-6.219-7.557,.776-.443,.776-7.115,0-3.109,6.995,.443,.776-3.552,6.219,4.448,6.219,.891,0,3.557,6.219,7.557-.776,.443-.776,7.115,0,3.115-6.995-.443-.776Z"/><path class="cls-1" d="M101.842,5.44c0,.203-.068,.375-.214,.521-.141,.141-.313,.214-.51,.214-.203,0-.375-.073-.516-.214-.141-.146-.214-.318-.214-.521s.073-.375,.214-.521c.141-.141,.313-.214,.516-.214,.198,0,.37,.073,.51,.214,.146,.146,.214,.318,.214,.521Z"/><path class="cls-2" d="M2.593,19.386c1.406,0,2.797-.063,3.359-1.344,1.365-3.12-3.88-9.599-2.599-9.88h.063c.911,0,1.172,4.615,3.057,4.615,1.625,0,2.057-4.635,2.818-4.635,.042,0,.063,0,.104,.021,.521,.302-2.146,6.349-1.99,8.885,.063,1.167,.344,2.339,3.073,2.339s2.885-2.078,2.839-2.599c-.214-2.536-1.557-3.099-1.688-5.484-.068-1.016,1.042-6.953-2.234-6.953-2.427,0-2.531,4.115-3.01,4.115-.5,0-1.276-4.115-3.031-4.115C.125,4.349,1.161,10.131,.989,11.865c-.172,1.714-.823,3.708-.974,5.182-.13,1.234,.562,2.339,2.578,2.339Z"/><path class="cls-2" d="M16.538,19.386h2.276c3.016,0,2.057-3.729,.953-6.891-.865-2.448-.495-3.75-.802-4.505-.172-.417-.583-.781-1.214-.781-.953,0-1.297,.542-1.365,.974-.26,1.755,.24,2.646-.714,5.458-1.474,4.339-.432,5.745,.865,5.745Zm1.151-12.958c.781,0,1.406-.542,1.406-1.214,0-.693-.625-1.234-1.406-1.234-.76,0-1.385,.542-1.385,1.234,0,.672,.625,1.214,1.385,1.214Z"/><path class="cls-2" d="M22.517,16.245c.26,1.776,1.974,3.141,4.203,3.141,2.125,0,4.25-.76,4.615-3.099,.37-2.427-.172-2.859-.281-6.87-.021-.693-.109-2.208-1.406-2.208h-.068c-1.083,.042-1.448,.755-1.365,2.036,.089,1.323-.214,2.818-.453,3.339-.281,.604-.609,.802-.953,.802-.521,0-1.151-.438-1.953-.438-.411,0-.865,.13-1.385,.479-.953,.651-1.083,1.885-.953,2.818Zm5.656-11.031c0,.672,.63,1.214,1.406,1.214,.781,0,1.411-.542,1.411-1.214,0-.693-.63-1.234-1.411-1.234-.776,0-1.406,.542-1.406,1.234Z"/><path class="cls-2" d="M35.969,19.386c2.208,0,2.729-.932,2.88-1.667,.411-1.974-1.167-4.161-1.667-6.307-.13-.583-.781-2.495,0-2.536,.563-.021,2.99,3.62,2.688,7.604-.13,1.693,.823,2.906,2.859,2.906,1.583,0,2.385-1.063,2.427-2.365,.109-3.161-.823-5.156-1.214-11.526-.068-1.063-.891-1.146-1.214-1.146-.714,0-1.083,.411-1.083,1.146,0,2.839-.089,3.703-.349,3.703-.104,0-.234-.125-.411-.323-.281-.323-2.839-4.526-5.505-4.526-1.557,0-.906,2.901-1.083,5.417-.234,3.38-1.036,5.156-1.188,7.104-.13,1.781,1.578,2.516,2.859,2.516Z"/><path class="cls-2" d="M56.61,19.386h.672c2.208,0,2.25-2.255,2.75-2.255,.479,0,.24,2.255,2.688,2.255,.37,0,.151-.021,.323-.021,5.375,0,1.542-6.609,2.104-9.104,.281-1.214,1.172-3.771,.563-5.068-.281-.63-.781-.844-1.214-.844-.089,0-.172,0-.26,.021-1.865,.411-1.557,6.76-2.51,6.76-.651,0-.068-4.641-1.693-4.641-1.646,0-.953,4.38-1.797,4.38-.823,0-.568-6.5-3.167-6.5-.865,0-1.453,.521-1.427,1.385,.042,1.667,1.578,3.208,1.104,6.109-.26,1.625-2.188,7.521,1.865,7.521Z"/><path class="cls-2" d="M68.453,16.87c.609,1.474,2.036,2.516,3.036,2.516h1.859c4.401,0,4.161-6.417,1.151-6.417h-.219c-.109,0-.214,.026-.323,.026-1.234,0-1.953-.698-1.953-1.651,0-1.516,3.49,.26,3.49-1.885s-3.531-1.167-3.49-2.057c0-.214,.281-.26,.651-.26,.411,0,.932,.047,1.411,.047,.672,0,1.276-.109,1.427-.609,.349-1.146-1.063-2.229-3.078-2.229h-.672c-1.188,0-2.448,.953-2.99,1.99-1.365,2.604-1.604,7.328-.302,10.531Z"/><path class="cls-2" d="M81.405,19.386c2.255,0,2.906-1.125,2.885-2.365-.026-1.776-1.432-2.812-1.193-3.443,.021-.068,.063-.089,.109-.089,.432,0,1.885,2.927,2.271,4.422,.219,.802,.63,1.474,2.297,1.474,.87,0,2.323-.021,2.453-1.474,.234-2.62-2.365-4.313-4.078-4.786,1.432-.479,2.016-1.755,2.104-3.276,.24-4.245-2.406-5.5-4.354-5.5-1.583,0-1.823,.302-2.083,.323-.151,0-.776-.323-1.297-.323-2.083,.021-1.542,3.641-1.432,4.656,.109,1.021,.219,2.146,.089,3.188-.177,1.427-.823,3.12-.823,4.505,0,1.104,.172,2.688,3.052,2.688Zm2.495-13h.042c.5,0,.974,.714,1.172,1.474,.193,.797,.083,1.646-.63,1.797-.063,.021-.109,.021-.151,.021-1.172,0-1.406-3.188-.432-3.292Z"/><path class="cls-2" d="M92.925,18.782c.609,.453,1.26,.583,1.995,.583,1.714,0,2.255-.714,2.557-1.214,.932-1.583,.281-3.359-.583-5.094,.172,.021,.323,.042,.432,.042,2.146,0,1.563,1.214,1.563,2.906s-.328,3.38,1.755,3.38h1.255c3.141,0,1.974-2.516,1.385-3.943-1.146-2.818-2.25-4.443-4.312-4.443-.26,0-.521,.021-.802,.062,.609-1.495,2.578-2.708,3.25-4.266,.24-.568-.021-1.734-.516-2.125-.328-.24-.74-.349-1.083-.349-.286,0-.542,.068-.672,.13-1.214,.609-2.344,3.51-2.708,4.49-.089,.234-.219,.453-.37,.672,.13-2.255,.734-5.266-1.453-5.266-.672,0-1.151,.365-1.365,.734-.932,1.583,.474,3.943,.281,5.677-.281,2.448-3.208,6.068-.609,8.021Z"/></svg>