<?xml version="1.0" encoding="UTF-8"?><svg id="Laag_1" xmlns="http://www.w3.org/2000/svg" viewBox="0 0 72.636 15.036"><defs><style>.cls-1{fill:#dcb556;}</style></defs><path class="cls-1" d="M1.419,15.036h3.01c2.578,0,.37-6.417,.458-6.568,.151-.26,.625-.391,1.083-.391,.432,0,.844,.109,.885,.328,.068,.302-.885,6.63,1.021,6.63h2.839c1.021,0,1.302-1.255,1.276-2.276-.042-1.797-1.927-4.682-2.578-6.672-.604-1.865-.974-3.771-2.057-5.422-.281-.432-.891-.667-1.474-.667-.344,0-.714,.083-.974,.255-1.411,.958-2.104,4.271-2.276,4.854-.349,1.151-.604,2.214-.995,3.359-.479,1.391-1.24,2.818-1.562,4.292-.172,.76-.172,2.276,1.344,2.276ZM5.862,2.359c.693-.089,1.146,2.427,.995,3.099-.083,.37-.563,.542-1.036,.542-.391,0-.76-.13-.849-.432-.172-.672,.089-3.099,.891-3.208Z"/><path class="cls-1" d="M13.719,9.078c.432,3.641,2.297,5.958,5.073,5.958,2.578,0,4.745-2.255,4.656-5.958-.021-1.151-.625-3.359-2.75-3.359-.151,0-.302,.021-.479,.042-2.099,.281-1.469,2.948-1.427,3.318,.042,.281-.24,.5-.583,.5-.438,0-.979-.328-1.172-1.302-.542-2.599,.453-5.594,2.078-5.745h.109c.823,0,.693,.781,1.432,1.172,.151,.089,.344,.13,.521,.13,.625,0,1.297-.453,1.234-1.406-.068-.979-1.151-2.427-2.995-2.427-5.026,0-6.089,5.74-5.698,9.078Z"/><path class="cls-1" d="M25.957,12.521c.609,1.474,2.036,2.516,3.036,2.516h1.859c4.401,0,4.161-6.417,1.151-6.417h-.219c-.109,0-.214,.026-.323,.026-1.234,0-1.953-.698-1.953-1.651,0-1.516,3.49,.26,3.49-1.885s-3.531-1.167-3.49-2.057c0-.214,.281-.26,.651-.26,.411,0,.932,.047,1.411,.047,.672,0,1.276-.109,1.427-.609,.349-1.146-1.063-2.229-3.078-2.229h-.672c-1.188,0-2.448,.953-2.99,1.99-1.365,2.604-1.604,7.328-.302,10.531Z"/><path class="cls-1" d="M38.716,15.036c2.208,0,2.729-.932,2.88-1.667,.411-1.974-1.167-4.161-1.667-6.307-.13-.583-.781-2.495,0-2.536,.563-.021,2.99,3.62,2.688,7.604-.13,1.693,.823,2.906,2.859,2.906,1.583,0,2.385-1.063,2.427-2.365,.109-3.161-.823-5.156-1.214-11.526-.068-1.063-.891-1.146-1.214-1.146-.714,0-1.083,.411-1.083,1.146,0,2.839-.089,3.703-.349,3.703-.104,0-.234-.125-.411-.323-.281-.323-2.839-4.526-5.505-4.526-1.557,0-.906,2.901-1.083,5.417-.234,3.38-1.036,5.156-1.188,7.104-.13,1.781,1.578,2.516,2.859,2.516Z"/><path class="cls-1" d="M51.492,15.016c.5,0,.781,0,1.281,.021h.281c1.318,0,2.531-.172,3.724-1.021,1.734-1.234,2.365-4.005,2.214-6.651-.26-4.526-2.667-7.24-4.724-7.365h-.219c-.542,0-1.042,.125-1.385,.281-.109-.109-.521-.281-.974-.281-.156,0-.307,.021-.458,.063-1.734,.479-.714,3.813-.5,5.354,.63,4.505-.453,5.698-.776,6.24-.521,.865-1.042,3.292,1.536,3.359Zm2.99-11.964c.802,.021,1.193,1.323,1.214,2.625,.021,1.297-.281,2.599-.885,2.62-1.214,.042-1.625-5.286-.328-5.245Z"/><path class="cls-1" d="M62.061,15.036h3.01c2.578,0,.37-6.417,.458-6.568,.151-.26,.625-.391,1.083-.391,.432,0,.844,.109,.885,.328,.068,.302-.885,6.63,1.021,6.63h2.839c1.021,0,1.302-1.255,1.276-2.276-.042-1.797-1.927-4.682-2.578-6.672-.604-1.865-.974-3.771-2.057-5.422-.281-.432-.891-.667-1.474-.667-.344,0-.714,.083-.974,.255-1.411,.958-2.104,4.271-2.276,4.854-.349,1.151-.604,2.214-.995,3.359-.479,1.391-1.24,2.818-1.562,4.292-.172,.76-.172,2.276,1.344,2.276Zm4.443-12.677c.693-.089,1.146,2.427,.995,3.099-.083,.37-.563,.542-1.036,.542-.391,0-.76-.13-.849-.432-.172-.672,.089-3.099,.891-3.208Z"/></svg>