<?xml version="1.0" encoding="UTF-8"?><svg id="Laag_1" xmlns="http://www.w3.org/2000/svg" viewBox="0 0 104.078 18.784"><defs><style>.cls-1{fill:#fdf9f1;}.cls-2{fill:#dcb556;}.cls-3{fill:#3c7f72;}</style></defs><path class="cls-3" d="M99.692,4.664c3.557-6.219-4.443-6.219-.891,0-3.552-6.219-7.557,.776-.443,.776-7.115,0-3.109,6.995,.443,.776-3.552,6.219,4.448,6.219,.891,0,3.557,6.219,7.557-.776,.443-.776,7.115,0,3.115-6.995-.443-.776Z"/><path class="cls-1" d="M99.973,5.44c0,.203-.068,.375-.214,.521-.141,.141-.313,.214-.51,.214-.203,0-.375-.073-.516-.214-.141-.146-.214-.318-.214-.521s.073-.375,.214-.521c.141-.141,.313-.214,.516-.214,.198,0,.37,.073,.51,.214,.146,.146,.214,.318,.214,.521Z"/><path class="cls-2" d="M2.97,18.784h.672c2.208,0,2.25-2.255,2.75-2.255,.479,0,.24,2.255,2.688,2.255,.37,0,.151-.021,.323-.021,5.375,0,1.542-6.609,2.104-9.104,.281-1.214,1.172-3.771,.563-5.068-.281-.63-.781-.844-1.214-.844-.089,0-.172,0-.26,.021-1.865,.411-1.557,6.76-2.51,6.76-.651,0-.068-4.641-1.693-4.641-1.646,0-.953,4.38-1.797,4.38-.823,0-.568-6.5-3.167-6.5C.563,3.769-.025,4.29,0,5.154c.042,1.667,1.578,3.208,1.104,6.109-.26,1.625-2.188,7.521,1.865,7.521Z"/><path class="cls-2" d="M13.948,11.264c.021,3.599,1.885,7.521,4.677,7.521,3.839,0,5.396-4.313,5.052-8.323-.307-3.49-2.063-6.714-5.052-6.714-2.859,0-4.703,2.792-4.677,7.516Zm4.677-5.068c1.474,0,2.344,5.609,.307,5.609-2.365,0-1.781-5.609-.307-5.609Z"/><path class="cls-2" d="M28.414,18.784c2.255,0,2.906-1.125,2.885-2.365-.026-1.776-1.432-2.812-1.193-3.443,.021-.068,.063-.089,.109-.089,.432,0,1.885,2.927,2.271,4.422,.219,.802,.63,1.474,2.297,1.474,.87,0,2.323-.021,2.453-1.474,.234-2.62-2.365-4.313-4.078-4.786,1.432-.479,2.016-1.755,2.104-3.276,.24-4.245-2.406-5.5-4.354-5.5-1.583,0-1.823,.302-2.083,.323-.151,0-.776-.323-1.297-.323-2.083,.021-1.542,3.641-1.432,4.656,.109,1.021,.219,2.146,.089,3.188-.177,1.427-.823,3.12-.823,4.505,0,1.104,.172,2.688,3.052,2.688Zm2.495-13h.042c.5,0,.974,.714,1.172,1.474,.193,.797,.083,1.646-.63,1.797-.063,.021-.109,.021-.151,.021-1.172,0-1.406-3.188-.432-3.292Z"/><path class="cls-2" d="M39.934,18.18c.609,.453,1.26,.583,1.995,.583,1.714,0,2.255-.714,2.557-1.214,.932-1.583,.281-3.359-.583-5.094,.172,.021,.323,.042,.432,.042,2.146,0,1.563,1.214,1.563,2.906s-.328,3.38,1.755,3.38h1.255c3.141,0,1.974-2.516,1.385-3.943-1.146-2.818-2.25-4.443-4.312-4.443-.26,0-.521,.021-.802,.062,.609-1.495,2.578-2.708,3.25-4.266,.24-.568-.021-1.734-.516-2.125-.328-.24-.74-.349-1.083-.349-.286,0-.542,.068-.672,.13-1.214,.609-2.344,3.51-2.708,4.49-.089,.234-.219,.453-.37,.672,.13-2.255,.734-5.266-1.453-5.266-.672,0-1.151,.365-1.365,.734-.932,1.583,.474,3.943,.281,5.677-.281,2.448-3.208,6.068-.609,8.021Z"/><path class="cls-2" d="M53.234,16.076c.823,1.344,2.49,2.708,4.745,2.708h.781c1.974,0,4.115-1.344,4.161-4.01,.062-3.943-5.505-5.505-5.938-7.234-.198-.74,.26-1.193,1.104-1.193h.219c.563,.042,1.385,.281,2.057,.281,.521,0,.953-.13,1.125-.609,.391-1.036-.604-2.271-2.99-2.271-3.078,0-4.854,1.406-4.854,3.792,0,2.922,4.896,4.807,3.922,5.786-.042,.042-.109,.063-.151,.063-.5,0-1.406-1.516-2.688-1.516h-.151c-1.927,.193-2.448,2.38-1.344,4.203Z"/><path class="cls-2" d="M65.859,18.784h2.385c2.927,0,2.016-3.401,1.323-6.177-.089-.344-.281-1.104,0-1.344,.193-.151,.693-.26,1.193-.26,.474,0,.953,.089,1.083,.26,.172,.219,.193,1.302-.089,2.146-1.432,4.313-.302,5.375,.953,5.375h2.234c2.922,0,1.99-3.729,.927-6.87-.823-2.448-.974-6.63-1.276-7.391-.172-.411-.563-.776-1.172-.776-.932,0-1.276,.542-1.318,.953-.089,.776,.104,2.813-.37,3.354-.24,.286-.609,.438-1,.438-.344,0-.714-.151-.953-.438-.495-.583-.521-3.12-.693-3.531-.172-.411-.542-.776-1.167-.776-.911,0-1.26,.542-1.323,.953-.281,1.755-.307,4.958-1.234,7.776-1.432,4.313-.781,6.307,.495,6.307Z"/><path class="cls-2" d="M78.532,11.264c.021,3.599,1.885,7.521,4.677,7.521,3.839,0,5.396-4.313,5.052-8.323-.307-3.49-2.063-6.714-5.052-6.714-2.859,0-4.703,2.792-4.677,7.516Zm4.677-5.068c1.474,0,2.344,5.609,.307,5.609-2.365,0-1.781-5.609-.307-5.609Z"/><path class="cls-2" d="M93.128,18.784c2.344,0,3.208-1.125,3.187-2.365-.021-1.818-1.823-4.224-1.714-4.437,.089-.177,.542,.734,2.167,.734,2.188,0,3.339-1.323,3.469-3.469,.26-4.245-2.495-5.5-4.531-5.5-1.625,0-1.885,.302-2.167,.323-.13,0-.802-.323-1.344-.323-2.167,.021-1.578,3.641-1.495,4.656,.089,1.021,.24,2.146,.089,3.188-.219,1.427-.844,3.12-.844,4.505,0,1.104,.172,2.688,3.182,2.688Zm2.578-13h.047c1.063,0,2.036,2.969,.563,3.271-.068,.021-.109,.021-.172,.021-1.193,0-1.432-3.188-.438-3.292Z"/></svg>