<?xml version="1.0" encoding="UTF-8"?><svg id="Laag_1" xmlns="http://www.w3.org/2000/svg" viewBox="0 0 89.001 19.76"><defs><style>.cls-1{fill:#fdf9f1;}.cls-2{fill:#dcb556;}.cls-3{fill:#3c7f72;}</style></defs><path class="cls-3" d="M84.615,4.664c3.557-6.219-4.443-6.219-.891,0-3.552-6.219-7.552,.776-.443,.776-7.109,0-3.109,6.995,.443,.776-3.552,6.219,4.448,6.219,.891,0,3.557,6.219,7.557-.776,.443-.776,7.115,0,3.115-6.995-.443-.776Z"/><path class="cls-1" d="M84.897,5.44c0,.203-.068,.375-.214,.521-.141,.141-.313,.214-.51,.214-.203,0-.375-.073-.516-.214-.141-.146-.214-.318-.214-.521s.073-.375,.214-.521c.141-.141,.313-.214,.516-.214,.198,0,.37,.073,.51,.214,.146,.146,.214,.318,.214,.521Z"/><path class="cls-2" d="M5.617,19.76c2.167,0,3.557-1.151,3.943-2.708,.5-1.974,.026-3.901-2.88-4.094-2.339-.156-3.359-.76-3.443-2.667-.109-2.318,1.469-3.901,3.333-3.901,.219,0,.432,.021,.651,.063,.13,.026,.26,.047,.391,.047,.63,0,1.193-.349,1.385-1.323,.281-1.385-1.016-1.823-1.776-1.823C1.977,3.354,.091,8.687,.008,11.567c-.068,2.125,.172,8.193,5.609,8.193Z"/><path class="cls-2" d="M11.357,12.239c.021,3.599,1.885,7.521,4.677,7.521,3.839,0,5.396-4.313,5.052-8.323-.307-3.49-2.063-6.714-5.052-6.714-2.859,0-4.703,2.792-4.677,7.516Zm4.677-5.068c1.474,0,2.344,5.609,.307,5.609-2.365,0-1.781-5.609-.307-5.609Z"/><path class="cls-2" d="M25.63,19.76c2.208,0,2.729-.932,2.88-1.667,.411-1.974-1.167-4.161-1.667-6.307-.13-.583-.781-2.495,0-2.536,.563-.021,2.99,3.62,2.688,7.604-.13,1.693,.823,2.906,2.859,2.906,1.583,0,2.385-1.063,2.427-2.365,.109-3.161-.823-5.156-1.214-11.526-.068-1.063-.891-1.146-1.214-1.146-.714,0-1.083,.411-1.083,1.146,0,2.839-.089,3.703-.349,3.703-.104,0-.234-.125-.411-.323-.281-.323-2.839-4.526-5.505-4.526-1.557,0-.906,2.901-1.083,5.417-.234,3.38-1.036,5.156-1.188,7.104-.13,1.781,1.578,2.516,2.859,2.516Z"/><path class="cls-2" d="M37.104,8.145c.109,.042,.24,.063,.37,.063,.563,0,1.281-.365,1.906-.365,.672,0,1.234,.474,1.281,2.49,.021,1.021-.693,3.88-1.453,6.651-.349,1.302,.151,2.776,1.995,2.776h1.948c2.516,0,2.688-1.625,2.516-2.406-.542-2.427-2.448-4.656-2.167-7.323,.172-1.734,.583-2.125,1.193-2.125,.521,0,1.188,.302,1.99,.302,1.453,0,1.651-2.62,.13-3.229-.604-.234-1.365-.255-2.557-.255h-1.104c-.521,0-1.234,.021-1.948,.021h-1.453c-.974,0-1.406,.021-1.974,.172-1.557,.411-1.688,2.75-.672,3.229Z"/><path class="cls-2" d="M50.924,19.76h3.01c2.578,0,.37-6.417,.458-6.568,.151-.26,.625-.391,1.083-.391,.432,0,.844,.109,.885,.328,.068,.302-.885,6.63,1.021,6.63h2.839c1.021,0,1.302-1.255,1.276-2.276-.042-1.797-1.927-4.682-2.578-6.672-.604-1.865-.974-3.771-2.057-5.422-.281-.432-.891-.667-1.474-.667-.344,0-.714,.083-.974,.255-1.411,.958-2.104,4.271-2.276,4.854-.349,1.151-.604,2.214-.995,3.359-.479,1.391-1.24,2.818-1.562,4.292-.172,.76-.172,2.276,1.344,2.276Zm4.443-12.677c.693-.089,1.146,2.427,.995,3.099-.083,.37-.563,.542-1.036,.542-.391,0-.76-.13-.849-.432-.172-.672,.089-3.099,.891-3.208Z"/><path class="cls-2" d="M68.297,19.76c1.969,0,3.25-1.063,3.599-2.49,.432-1.802,.042-3.578-2.625-3.75-2.167-.151-3.099-.693-3.161-2.448-.089-2.125,1.318-3.578,3.031-3.578,.198,0,.411,.021,.609,.068,.104,.021,.234,.042,.344,.042,.589,0,1.104-.302,1.281-1.234,.234-1.26-.911-1.646-1.625-1.646-4.813,0-6.526,4.875-6.609,7.516-.068,1.953,.172,7.521,5.156,7.521Z"/><path class="cls-2" d="M74.334,8.145c.109,.042,.24,.063,.37,.063,.563,0,1.281-.365,1.906-.365,.672,0,1.234,.474,1.281,2.49,.021,1.021-.693,3.88-1.453,6.651-.349,1.302,.151,2.776,1.995,2.776h1.948c2.516,0,2.688-1.625,2.516-2.406-.542-2.427-2.448-4.656-2.167-7.323,.172-1.734,.583-2.125,1.193-2.125,.521,0,1.188,.302,1.99,.302,1.453,0,1.651-2.62,.13-3.229-.604-.234-1.365-.255-2.557-.255h-1.104c-.521,0-1.234,.021-1.948,.021h-1.453c-.974,0-1.406,.021-1.974,.172-1.557,.411-1.688,2.75-.672,3.229Z"/></svg>