<?xml version="1.0" encoding="UTF-8"?><svg id="Laag_1" xmlns="http://www.w3.org/2000/svg" viewBox="0 0 53.063 19.276"><defs><style>.cls-1{fill:#fdf9f1;}.cls-2{fill:#dcb556;}.cls-3{fill:#3c7f72;}</style></defs><path class="cls-3" d="M48.681,4.664c3.552-6.219-4.448-6.219-.891,0-3.557-6.219-7.557,.776-.443,.776-7.115,0-3.115,6.995,.443,.776-3.557,6.219,4.443,6.219,.891,0,3.552,6.219,7.552-.776,.443-.776,7.109,0,3.109-6.995-.443-.776Z"/><path class="cls-1" d="M48.962,5.44c0,.203-.073,.375-.214,.521-.141,.141-.313,.214-.516,.214-.198,0-.37-.073-.516-.214-.141-.146-.208-.318-.208-.521s.068-.375,.208-.521c.146-.141,.318-.214,.516-.214,.203,0,.375,.073,.516,.214,.141,.146,.214,.318,.214,.521Z"/><path class="cls-2" d="M1.307,19.276H3.692c2.927,0,2.016-3.401,1.323-6.177-.089-.344-.281-1.104,0-1.344,.193-.151,.693-.26,1.193-.26,.474,0,.953,.089,1.083,.26,.172,.219,.193,1.302-.089,2.146-1.432,4.313-.302,5.375,.953,5.375h2.234c2.922,0,1.99-3.729,.927-6.87-.823-2.448-.974-6.63-1.276-7.391-.172-.411-.563-.776-1.172-.776-.932,0-1.276,.542-1.318,.953-.089,.776,.104,2.813-.37,3.354-.24,.286-.609,.438-1,.438-.344,0-.714-.151-.953-.438-.495-.583-.521-3.12-.693-3.531-.172-.411-.542-.776-1.167-.776-.911,0-1.26,.542-1.323,.953-.281,1.755-.307,4.958-1.234,7.776-1.432,4.313-.781,6.307,.495,6.307Z"/><path class="cls-2" d="M13.979,11.755c.021,3.599,1.885,7.521,4.677,7.521,3.839,0,5.396-4.313,5.052-8.323-.307-3.49-2.063-6.714-5.052-6.714-2.859,0-4.703,2.792-4.677,7.516Zm4.677-5.068c1.474,0,2.344,5.609,.307,5.609-2.365,0-1.781-5.609-.307-5.609Z"/><path class="cls-2" d="M27.992,19.276c1.406,0,2.797-.063,3.359-1.344,1.365-3.12-3.88-9.599-2.599-9.88h.063c.911,0,1.172,4.615,3.057,4.615,1.625,0,2.057-4.635,2.818-4.635,.042,0,.063,0,.104,.021,.521,.302-2.146,6.349-1.99,8.885,.063,1.167,.344,2.339,3.073,2.339s2.885-2.078,2.839-2.599c-.214-2.536-1.557-3.099-1.688-5.484-.068-1.016,1.042-6.953-2.234-6.953-2.427,0-2.531,4.115-3.01,4.115-.5,0-1.276-4.115-3.031-4.115-3.229,0-2.193,5.781-2.365,7.516-.172,1.714-.823,3.708-.974,5.182-.13,1.234,.562,2.339,2.578,2.339Z"/><path class="cls-2" d="M41.223,16.76c.609,1.474,2.036,2.516,3.036,2.516h1.859c4.401,0,4.161-6.417,1.151-6.417h-.219c-.109,0-.214,.026-.323,.026-1.234,0-1.953-.698-1.953-1.651,0-1.516,3.49,.26,3.49-1.885s-3.531-1.167-3.49-2.057c0-.214,.281-.26,.651-.26,.411,0,.932,.047,1.411,.047,.672,0,1.276-.109,1.427-.609,.349-1.146-1.063-2.229-3.078-2.229h-.672c-1.188,0-2.448,.953-2.99,1.99-1.365,2.604-1.604,7.328-.302,10.531Z"/></svg>