<?xml version="1.0" encoding="UTF-8"?><svg id="Laag_1" xmlns="http://www.w3.org/2000/svg" xmlns:xlink="http://www.w3.org/1999/xlink" viewBox="0 0 290.64 55.342"><defs><style>.cls-1{fill:none;}.cls-2{clip-path:url(#clippath);}.cls-3{fill:#fdf9f1;}.cls-4{fill:#c16d02;}.cls-5{fill:#dcb556;}.cls-6{fill:#43241e;}.cls-7{clip-path:url(#clippath-1);}.cls-8{clip-path:url(#clippath-3);}.cls-9{clip-path:url(#clippath-2);}</style><clipPath id="clippath"><rect class="cls-1" x="169.139" y="24.859" width="11" height="6"/></clipPath><clipPath id="clippath-1"><rect class="cls-1" x="159.998" width="29" height="30"/></clipPath><clipPath id="clippath-2"><rect class="cls-1" x="160.311" width="28.688" height="29.969"/></clipPath><clipPath id="clippath-3"><rect class="cls-1" x="159.998" width="29" height="30"/></clipPath></defs><path class="cls-4" d="M.471,30.394c1.724,2.646,6.427,4.911,6.594,9.031,.255,6.635-4.786,15.917,.297,15.917h7.016c7.432,0-.422-10.333,0-15.917,.208-2.646,1.927-4.245,3.859-5.63,3.948-2.813,4.578-6.385,2.313-7.307-.38-.167-.714-.208-1.094-.208-3.734,0-6.885,7.516-8.443,7.516-1.344,0-4.073-6.927-7.432-7.516-.292-.042-.589-.083-.839-.083C.096,26.196-.576,28.8,.471,30.394Z"/><path class="cls-4" d="M30.42,55.342h5.839c4.995,0,.714-12.432,.88-12.724,.292-.505,1.219-.76,2.099-.76,.844,0,1.641,.214,1.724,.63,.125,.589-1.724,12.854,1.974,12.854h5.5c1.974,0,2.521-2.438,2.479-4.411-.083-3.484-3.74-9.073-5-12.932-1.172-3.615-1.885-7.313-3.99-10.5-.542-.844-1.719-1.302-2.854-1.302-.672,0-1.385,.167-1.891,.5-2.729,1.849-4.073,8.276-4.411,9.411-.672,2.224-1.172,4.281-1.932,6.51-.922,2.687-2.391,5.458-3.021,8.312-.339,1.474-.339,4.411,2.604,4.411Zm8.609-24.568c1.344-.172,2.224,4.703,1.932,6.005-.167,.714-1.094,1.047-2.016,1.047-.755,0-1.469-.25-1.641-.839-.333-1.302,.172-6.005,1.724-6.214Z"/><path class="cls-4" d="M62.677,55.342c4.365,0,5.625-2.182,5.583-4.578-.042-3.443-2.771-5.458-2.307-6.677,.042-.125,.125-.167,.208-.167,.839,0,3.656,5.667,4.411,8.568,.417,1.552,1.219,2.854,4.448,2.854,1.682,0,4.495-.042,4.75-2.854,.458-5.083-4.578-8.359-7.896-9.281,2.771-.927,3.906-3.406,4.073-6.344,.464-8.234-4.661-10.667-8.443-10.667-3.068,0-3.526,.583-4.031,.63-.297,0-1.51-.63-2.521-.63-4.031,.042-2.984,7.052-2.771,9.026,.208,1.974,.417,4.161,.167,6.177-.333,2.771-1.594,6.047-1.594,8.734,0,2.141,.333,5.208,5.922,5.208Zm4.828-25.198h.083c.969,0,1.891,1.385,2.271,2.854,.375,1.552,.167,3.193-1.219,3.484-.125,.042-.214,.042-.297,.042-2.266,0-2.729-6.172-.839-6.38Z"/><path class="cls-4" d="M91.151,55.342c4.286,0,5.292-1.807,5.589-3.234,.797-3.823-2.271-8.063-3.234-12.224-.255-1.13-1.516-4.828,0-4.911,1.089-.042,5.797,7.016,5.208,14.74-.255,3.276,1.594,5.63,5.542,5.63,3.068,0,4.62-2.057,4.703-4.578,.214-6.13-1.594-9.995-2.349-22.344-.13-2.057-1.724-2.224-2.354-2.224-1.385,0-2.099,.797-2.099,2.224,0,5.5-.167,7.182-.672,7.182-.208,0-.464-.25-.797-.63-.547-.63-5.505-8.776-10.672-8.776-3.021,0-1.76,5.625-2.099,10.5-.464,6.552-2.016,9.995-2.307,13.776-.255,3.443,3.063,4.87,5.542,4.87Z"/><path class="cls-4" d="M120.971,55.342c4.536,0,6.219-2.182,6.172-4.578-.042-3.526-3.526-8.187-3.318-8.609,.172-.339,1.052,1.427,4.203,1.427,4.24,0,6.469-2.563,6.719-6.719,.505-8.234-4.828-10.667-8.776-10.667-3.151,0-3.656,.583-4.203,.63-.25,0-1.552-.63-2.604-.63-4.198,.042-3.063,7.052-2.896,9.026s.464,4.161,.167,6.177c-.422,2.771-1.635,6.047-1.635,8.734,0,2.141,.333,5.208,6.172,5.208Zm5-25.198h.083c2.057,0,3.948,5.75,1.089,6.339-.125,.042-.208,.042-.333,.042-2.312,0-2.771-6.172-.839-6.38Z"/><path class="cls-4" d="M143.358,55.342h5.839c4.995,0,.714-12.432,.88-12.724,.292-.505,1.219-.76,2.099-.76,.844,0,1.641,.214,1.724,.63,.125,.589-1.724,12.854,1.974,12.854h5.5c1.974,0,2.521-2.438,2.479-4.411-.083-3.484-3.74-9.073-5-12.932-1.172-3.615-1.885-7.313-3.99-10.5-.542-.844-1.719-1.302-2.854-1.302-.672,0-1.385,.167-1.891,.5-2.729,1.849-4.073,8.276-4.411,9.411-.672,2.224-1.172,4.281-1.932,6.51-.922,2.687-2.391,5.458-3.021,8.312-.339,1.474-.339,4.411,2.604,4.411Zm8.609-24.568c1.344-.172,2.224,4.703,1.932,6.005-.167,.714-1.094,1.047-2.016,1.047-.755,0-1.469-.25-1.641-.839-.333-1.302,.172-6.005,1.724-6.214Z"/><path class="cls-4" d="M172.756,55.342h4.411c5.839,0,3.99-7.224,1.849-13.354-1.682-4.75-.969-7.266-1.557-8.74-.333-.797-1.13-1.51-2.349-1.51-1.849,0-2.521,1.052-2.646,1.891-.505,3.401,.464,5.125-1.385,10.583-2.859,8.401-.844,11.13,1.677,11.13Zm2.229-25.115c1.51,0,2.729-1.052,2.729-2.354,0-1.344-1.219-2.396-2.729-2.396-1.474,0-2.687,1.052-2.687,2.396,0,1.302,1.214,2.354,2.687,2.354Z"/><path class="cls-4" d="M192.455,55.342c4.286,0,5.292-1.807,5.589-3.234,.797-3.823-2.271-8.063-3.234-12.224-.255-1.13-1.516-4.828,0-4.911,1.089-.042,5.797,7.016,5.208,14.74-.255,3.276,1.594,5.63,5.542,5.63,3.068,0,4.62-2.057,4.703-4.578,.214-6.13-1.594-9.995-2.349-22.344-.13-2.057-1.724-2.224-2.354-2.224-1.385,0-2.099,.797-2.099,2.224,0,5.5-.167,7.182-.672,7.182-.208,0-.464-.25-.797-.63-.547-.63-5.505-8.776-10.672-8.776-3.021,0-1.76,5.625-2.099,10.5-.464,6.552-2.016,9.995-2.307,13.776-.255,3.443,3.063,4.87,5.542,4.87Z"/><path class="cls-4" d="M217.364,32.831c.208,.083,.458,.125,.714,.125,1.089,0,2.474-.714,3.693-.714,1.302,0,2.396,.922,2.479,4.828,.042,1.974-1.344,7.521-2.813,12.896-.672,2.521,.292,5.375,3.865,5.375h3.776c4.875,0,5.208-3.151,4.875-4.661-1.052-4.703-4.745-9.031-4.203-14.198,.339-3.359,1.135-4.115,2.313-4.115,1.005,0,2.307,.589,3.865,.589,2.813,0,3.193-5.083,.25-6.26-1.177-.458-2.646-.5-4.953-.5h-2.146c-1.005,0-2.391,.042-3.776,.042h-2.818c-1.891,0-2.729,.042-3.818,.333-3.026,.797-3.276,5.333-1.302,6.26Z"/><path class="cls-4" d="M245.752,50.472c1.177,2.854,3.948,4.87,5.88,4.87h3.615c8.526,0,8.063-12.432,2.224-12.432h-.422c-.208,0-.417,.042-.63,.042-2.391,0-3.776-1.344-3.776-3.193,0-2.938,6.76,.505,6.76-3.651s-6.844-2.271-6.76-3.99c0-.422,.547-.505,1.26-.505,.797,0,1.802,.083,2.729,.083,1.302,0,2.479-.208,2.771-1.177,.672-2.224-2.057-4.323-5.964-4.323h-1.302c-2.313,0-4.745,1.844-5.797,3.859-2.646,5.042-3.109,14.198-.589,20.417Z"/><path class="cls-4" d="M273.517,55.342c4.365,0,5.625-2.182,5.583-4.578-.042-3.443-2.771-5.458-2.307-6.677,.042-.125,.125-.167,.208-.167,.839,0,3.656,5.667,4.411,8.568,.417,1.552,1.219,2.854,4.448,2.854,1.682,0,4.495-.042,4.75-2.854,.458-5.083-4.578-8.359-7.896-9.281,2.771-.927,3.906-3.406,4.073-6.344,.464-8.234-4.661-10.667-8.443-10.667-3.068,0-3.526,.583-4.031,.63-.297,0-1.51-.63-2.521-.63-4.031,.042-2.984,7.052-2.771,9.026,.208,1.974,.417,4.161,.167,6.177-.333,2.771-1.594,6.047-1.594,8.734,0,2.141,.333,5.208,5.922,5.208Zm4.828-25.198h.083c.969,0,1.891,1.385,2.271,2.854,.375,1.552,.167,3.193-1.219,3.484-.125,.042-.214,.042-.297,.042-2.266,0-2.729-6.172-.839-6.38Z"/><g class="cls-2"><g><path class="cls-3" d="M169.186,24.901h10.911v5.922h-10.911v-5.922Z"/><path class="cls-3" d="M180.097,30.859h-10.911c-.026,0-.042-.016-.042-.036v-5.922c0-.021,.016-.042,.042-.042h10.911c.021,0,.042,.021,.042,.042v5.922c0,.021-.021,.036-.042,.036Zm-10.875-.078h10.833v-5.839h-10.833v5.839Z"/></g></g><g class="cls-7"><path class="cls-6" d="M188.91,17.891c-.031,.318-.193,.49-.359,.667-.036,.042-.078,.083-.115,.13-.24,.271-.5,.302-.807,.323,0,.036,.005,.068,0,.109,0,.083,0,.182,.01,.214,.036,.182,.094,.896-.109,1.151-.026,.031-.052,.052-.083,.068v.005c.016,.031,.026,.057,.068,.083,.021,.01,.031,.031,.026,.057-.094,.818-.547,1.281-1.302,1.339-.109,.01-.214,.016-.323,.016-.391,0-.792-.057-1.219-.172,.214,.24,.495,.615,.505,.911,.005,.224-.068,.417-.229,.578-.13,.13-.292,.219-.464,.276,.13,.188,.255,.385,.375,.604,.021,.031,.042,.068,.063,.109,.24,.422,.682,1.208,.49,1.641-.13,.307-.536,.401-.948,.401-.37,0-.75-.078-.953-.156-.313-.12-.646-.302-1.01-.552-.042-.026-.083-.057-.12-.083,.146,.365,.302,.74,.464,1.099,.141,.323,.141,.667,0,.943s-.396,.464-.729,.531c-.115,.021-.229,.031-.333,.031-.552,0-.922-.302-1.302-.672-.661-.63-1.406-1.37-1.995-2.214,.026,.38,.016,.76-.026,1.089-.047,.359-.13,.823-.349,1.224-.135,.245-.443,.641-.76,.729-.099,.026-.198,.026-.286-.016-.031,.047-.057,.089-.083,.125-.203,.313-.349,.536-.865,.573h-.052c-.828,0-1.214-1.318-1.401-1.958l-.005-.021c-.042-.141-.078-.286-.109-.438-.047,.271-.083,.516-.109,.745-.016,.13-.031,.266-.047,.406-.063,.568-.135,1.208-.365,1.708-.104,.224-.349,.37-.74,.448-.198,.036-.417,.057-.635,.057-.635,0-1.271-.141-1.422-.281-.302-.286-.255-.615-.219-.911,.016-.146,.036-.297,.057-.443,.073-.568,.141-1.104,.188-1.661,.005-.104,.016-.208,.026-.313-.375,.5-.938,.875-1.349,1.12-.365,.219-.693,.328-.979,.328-.104,0-.203-.01-.297-.042-.292-.089-.526-.323-.693-.693-.047-.099-.078-.198-.099-.292-.245,.297-.531,.536-.995,.589-.063,.005-.12,.01-.172,.01-.307,0-.536-.104-.682-.307-.328-.464-.135-1.339,.063-1.911-.401,.365-.839,.682-1.333,.932-.323,.167-.682,.271-1,.292-.042,0-.078,.005-.115,.005-.307,0-.391-.109-.521-.313-.031-.047-.068-.104-.109-.161-.068-.089-.151-.156-.234-.219-.156-.125-.323-.26-.354-.573-.031-.302,.057-.661,.234-.969,.245-.422,.594-.766,.932-1.104,.172-.172,.349-.349,.51-.531-.052,.005-.115,.005-.172,.005-.568,0-1.198-.219-1.464-.667-.406-.688,.083-1.563,.682-2.156,.109-.109,.234-.203,.354-.292-.625-.005-1.385-.339-1.813-.818-.276-.313-.385-.651-.313-.979,.042-.214,.177-.323,.307-.427,.094-.073,.182-.146,.234-.25,.042-.089,.057-.177,.068-.276,.01-.068,.021-.135,.042-.208-.052-.016-.104-.026-.156-.042-.036-.01-.078-.021-.12-.031-.469-.12-1.333-.349-1.505-.786-.234-.594,.745-1.365,1.151-1.557l.141-.063-.047-.026c-.302-.172-.62-.349-.833-.646-.188-.25-.182-.438-.177-.641,0-.104,0-.214-.021-.333-.021-.115-.073-.203-.125-.292-.099-.172-.203-.349-.031-.656s.547-.552,.917-.599c.385-.047,.786,.026,1.177,.125-.219-.323-.313-.635-.333-1.099-.031-.526-.01-1.115,.583-1.401,.833-.406,2.052-.229,2.891,.13,.135,.057,.271,.125,.417,.203-.115-.156-.224-.292-.328-.411l-.156-.188c-.552-.651-1.125-1.328-1.51-2.083-.161-.318-.177-.63-.052-.911,.172-.38,.609-.693,1.135-.818,.464-.104,.927-.068,1.458,.115-.13-.359-.224-.724-.286-1.141-.005-.036-.016-.078-.021-.125-.078-.479-.219-1.375,.109-1.714,.438-.453,1.526,.146,1.865,.448,.224,.198,.443,.448,.667,.755,.016-.089,.026-.172,.042-.255,.109-.599,.339-1.026,.682-1.26,.328-.229,.766-.286,1.307-.177,.635,.125,1.036,.417,1.328,.969,.266-.401,.661-.646,1.031-.625,.875,.042,1.401,.594,1.797,1.156,.094-.307,.198-.589,.318-.859,.286-.646,.714-1.438,1.104-1.5,.089-.016,.172,.005,.245,.068,.141-.156,.276-.219,.411-.182,.281,.078,.505,.583,.661,1.5,.573-.406,.995-.568,1.281-.484,.13,.036,.234,.125,.302,.255,.333-.135,.62-.109,.813,.073,.255,.25,.302,.755,.115,1.229l-.12,.307c-.099,.255-.203,.521-.307,.792,.167-.073,.313-.089,.443-.047,.323-.495,.646-.953,1.333-1.057,.438-.063,.76,.036,.958,.302,.495,.646,.052,2.089-.161,2.589-.125,.292-.245,.563-.354,.813,.219-.177,.453-.339,.703-.469,.276-.141,.573-.203,.859-.271,.396-.083,.771-.167,1.089-.438,.042-.036,.078-.068,.12-.104,.208-.188,.422-.385,.755-.323,.318,.057,.536,.344,.594,.76,.104,.755-.229,1.427-.521,1.859-.12,.167-.245,.339-.38,.505,.323,.005,.63,.125,.948,.375,.036,.031,.068,.057,.099,.083,.177,.146,.214,.177,.479,.25,.276,.083,.458,.182,.646,.359,.349,.328,.563,.833,.573,1.349,.005,.484-.161,.927-.474,1.24-.193,.193-.453,.359-.734,.495,.411,.068,.828,.203,1.12,.453,.245,.208,.38,.479,.396,.792,.042,.661-.37,1.292-.547,1.531-.203,.271-.432,.469-.734,.625-.135,.068-.297,.109-.458,.141-.057,.016-.109,.026-.167,.042,.443,.177,.833,.391,1.172,.635l.057,.042c.49,.354,1.313,.953,1.24,1.656Z"/></g><g class="cls-9"><path class="cls-3" d="M184.78,24.307c.021,.031,.042,.068,.063,.109,.229,.406,.651,1.156,.49,1.536-.214,.474-1.339,.344-1.755,.182-.307-.12-.63-.297-.984-.542-.094-.063-.182-.125-.271-.193-.016-.031-.026-.063-.042-.099-.323-.797-.656-1.625-1.068-2.391-.068-.125-.13-.24-.198-.354,.26,.125,.521,.266,.771,.406,.656,.37,1.339,.75,2.12,.776h.047c.13,0,.281-.016,.438-.057,.141,.193,.271,.396,.391,.625Zm-22.698-7.938c.021-.052,.052-.104,.094-.156,.344-.448,1.031-.786,1.536-1.036,.052-.031,.104-.052,.156-.078,.083-.042,.172-.083,.271-.12-.88-.182-1.724-.495-2.453-.896-.078,.026-.151,.063-.224,.094-.401,.188-1.286,.917-1.094,1.401,.151,.385,.979,.599,1.422,.719,.047,.01,.089,.021,.125,.031,.052,.016,.109,.031,.167,.042Zm16.901-10.01c-.052,.214-.099,.432-.151,.651-.115,.526-.229,1.068-.422,1.563-.021,.057-.052,.156-.099,.276-.109,.307-.271,.771-.438,1.182,.01,.005,.016,.01,.026,.016h.005c.229,.135,.443,.276,.646,.427,.615-1.047,1.432-2.089,2.526-3.224l.052-.057c.234-.24,.474-.49,.734-.714,.146-.313,.297-.656,.458-1.036,.297-.698,.589-1.932,.177-2.474-.167-.224-.453-.307-.849-.25-.656,.094-.943,.536-1.276,1.047-.021,.021-.052,.031-.078,.021-.13-.068-.302-.036-.5,.078-.281,.74-.594,1.604-.813,2.495Zm2.229,.917l-.052,.057c-1.094,1.135-1.906,2.172-2.516,3.208l.063,.047c.198,.156,.391,.328,.568,.505,.281,.286,.526,.589,.724,.901,.109-.094,.208-.193,.297-.297,.615-.755,1.26-1.37,2.021-1.943,.313-.229,.651-.438,.984-.635,.464-.281,.948-.573,1.339-.938,.109-.104,.219-.208,.323-.313,.005-.01,.016-.016,.026-.016,.052-.01,.099-.021,.146-.021,.161-.193,.313-.391,.443-.583,.286-.417,.604-1.063,.505-1.776-.026-.177-.12-.589-.5-.656-.276-.052-.453,.104-.656,.292-.042,.036-.078,.073-.12,.104-.339,.292-.745,.38-1.141,.469-.276,.063-.568,.125-.833,.26-.615,.318-1.135,.833-1.62,1.333Zm3.818,.693c-.099,.099-.203,.198-.313,.302-.396,.37-.885,.667-1.359,.953-.328,.198-.667,.401-.969,.63-.755,.563-1.396,1.177-2,1.917-.099,.12-.208,.224-.328,.328,.057,.099,.115,.198,.167,.297,.036,.078,.073,.151,.104,.224,.104,.245,.182,.505,.234,.802,.568-.276,1.24-.469,1.781-.62,.089-.021,.172-.047,.245-.068,.167-.047,.344-.083,.516-.125,.297-.063,.604-.13,.875-.25l.083-.036c.182-.078,.344-.146,.505-.203h.005c0-.005,.005-.005,.005-.005,.156-.021,.307-.047,.453-.073,.208-.036,.417-.073,.63-.099,.24-.026,.583-.036,.948,0,.333-.146,.651-.323,.87-.547,.292-.292,.448-.703,.438-1.156-.005-.484-.208-.958-.536-1.266-.172-.161-.339-.255-.594-.328-.286-.083-.339-.12-.521-.271-.031-.026-.063-.052-.099-.083-.38-.302-.734-.401-1.141-.323Zm2.495,11.391c-.01-.047-.01-.135-.01-.24v-.099c-.151,.01-.307,.016-.469,.016h-.156c-.917-.021-1.844-.208-2.745-.391-.12-.026-.245-.052-.365-.078-.74-.146-1.464-.354-2.073-.536-.26-.083-.536-.151-.802-.214-.146-.036-.292-.073-.443-.109-.094,.365-.214,.719-.37,1.042-.016,.042-.031,.073-.052,.109,.016,.016,.031,.026,.047,.036,.021,.021,.047,.042,.068,.063,.042,.031,.078,.063,.115,.089,.021,.021,.047,.036,.068,.057l.125,.094c.021,.016,.036,.031,.057,.047,.052,.036,.099,.073,.146,.109,.016,.01,.026,.021,.036,.031,.063,.042,.125,.089,.188,.135,.193,.146,.396,.297,.589,.448,.099,.083,.203,.161,.302,.245,.422,.344,.818,.667,1.292,.896,.391,.193,.906,.432,1.453,.599,.609,.182,1.167,.255,1.703,.214,.859-.073,1.125-.688,1.193-1.208-.042-.036-.063-.073-.078-.104-.01-.021-.021-.036-.036-.052-.016-.021-.021-.047-.01-.068s.031-.036,.052-.036h.005c.031,0,.063-.016,.089-.047,.151-.188,.125-.818,.083-1.047Zm-19.656,7.286c-.031-.375,.094-.74,.219-1.094,.057-.177,.12-.359,.161-.536,.063-.26,.109-.51,.156-.755,.078-.406,.146-.786,.276-1.193,.125-.396,.281-.755,.505-1.146-.047,.047-.089,.094-.141,.141-.229,.24-.469,.484-.703,.729-.281,.292-.552,.604-.818,.906-.391,.453-.792,.906-1.229,1.323-.25,.609-.469,1.568-.161,2.01,.146,.208,.396,.292,.745,.25,.474-.052,.74-.307,.99-.635Zm6.771-1.083l.005-.016c.224-1.219,.255-2.474,.104-3.745h-.021c-.068,0-.156,.005-.24,.005-.109,0-.214-.005-.26-.01-.219-.036-.438-.047-.651-.057-.12-.01-.25-.016-.375-.026-.245-.021-.5-.073-.766-.146-.063,.203-.12,.422-.182,.661-.229,.875-.453,1.797-.63,2.755-.057,.307-.104,.62-.146,.932-.031,.266-.063,.531-.083,.797-.042,.563-.115,1.099-.188,1.667-.021,.146-.036,.292-.057,.443-.042,.333-.052,.583,.188,.813,.156,.146,1.198,.339,1.953,.188,.24-.047,.547-.151,.656-.375,.219-.484,.292-1.115,.349-1.672,.016-.146,.031-.281,.047-.411,.042-.318,.094-.656,.167-1.063v-.016c.042-.24,.089-.484,.13-.724Zm.047-18.786c0,.516,.005,1.052-.021,1.573-.005,.13-.016,.266-.026,.391l-.016,.203h.094c.292,.005,.568,.005,.87,.104,.328,.109,.615,.208,.885,.318,.01,.005,.026,.01,.036,.016l.047-.141c.094-.318,.172-.651,.245-.974l.083-.359c.135-.599,.281-1.219,.401-1.828,.042-.234,.094-.464,.135-.688,.24-1.141,.464-2.219,.297-3.438,0-.016-.005-.036-.005-.057-.01-.068-.021-.151-.036-.255-.146-.885-.359-1.432-.594-1.495-.099-.026-.208,.036-.333,.188-.01,.016-.026,.021-.042,.021-.021,.005-.036-.005-.047-.016-.057-.063-.115-.089-.188-.078-.255,.047-.625,.568-1.01,1.432-.135,.302-.25,.615-.349,.964-.063,.203-.115,.417-.167,.656-.031,.141-.057,.286-.089,.443-.182,.995-.177,2.026-.172,3.021Zm-10.302,8.135c.448,.078,.891,.13,1.328,.146,.219,.01,.432,.01,.635,.01h.49c.021,0,.042,0,.068,.005h.094c.026,0,.047,.005,.068,.005,.031,0,.063,.005,.099,.005,.021,0,.042,.005,.068,.005,.031,.005,.063,.005,.099,.01,.021,0,.042,.005,.063,.005,.036,.005,.073,.01,.115,.016,.016,0,.036,.005,.057,.005,.052,.01,.109,.021,.167,.031,.109,.021,.229,.031,.354,.042,.057-.87,.25-1.734,.557-2.51-.031-.01-.068-.021-.099-.031-.021-.01-.047-.021-.068-.026-.036-.01-.073-.026-.104-.036-.021-.005-.047-.016-.068-.021-.036-.016-.078-.026-.12-.036l-.047-.016c-.052-.021-.109-.036-.161-.052-.151-.047-.292-.094-.422-.141-.281-.094-.568-.182-.849-.266-.469-.135-.938-.245-1.396-.333-.193-.036-.38-.078-.568-.12s-.375-.083-.557-.13c-.313-.073-.635-.151-.958-.219-.182-.036-.365-.083-.563-.135l-.125-.031c-.427-.109-.875-.214-1.292-.167-.328,.042-.677,.271-.828,.542-.141,.25-.068,.37,.026,.536,.057,.094,.115,.193,.141,.328s.026,.255,.021,.359c-.005,.198-.005,.354,.156,.573,.203,.271,.505,.443,.797,.609l.083,.047c.802,.464,1.75,.802,2.74,.99Zm23.219,1.422l-.057-.042c-.464-.339-1.026-.609-1.672-.813-.24-.073-.495-.135-.766-.193-.401-.073-.828-.125-1.292-.167-1.099-.094-2.109-.172-3.12-.177,.036,1.052-.031,1.901-.203,2.646,.146,.042,.297,.078,.443,.115,.266,.063,.536,.13,.802,.214,.609,.182,1.328,.391,2.068,.536,.12,.026,.24,.047,.359,.073,.896,.182,1.818,.37,2.729,.391,.224,.005,.448,0,.656-.016l.042-.005c.313-.026,.542-.042,.755-.286,.042-.047,.078-.089,.12-.13,.167-.182,.297-.323,.328-.599,.063-.635-.724-1.208-1.193-1.547Zm-5.432,9.016c-.323-.797-.651-1.62-1.063-2.38-.099-.182-.193-.349-.292-.516-.24-.396-.49-.76-.76-1.099-.089-.109-.182-.219-.281-.328-.021-.026-.042-.052-.068-.073-.005-.01-.01-.016-.016-.021-.021-.021-.036-.042-.057-.057-.01-.01-.016-.021-.026-.026-.016-.021-.031-.036-.047-.052l-.031-.031c-.016-.016-.031-.031-.052-.047l-.031-.031-.047-.047c-.016-.01-.026-.021-.036-.031-.016-.016-.031-.031-.052-.042-.01-.016-.021-.026-.036-.036-.016-.016-.031-.026-.047-.042-.016-.01-.026-.021-.042-.036-.016-.01-.031-.026-.047-.042-.016-.01-.026-.021-.042-.031-.016-.016-.031-.031-.047-.042-.01-.01-.021-.016-.031-.026-.026,.026-.052,.047-.073,.073-.505,.5-1.073,.87-1.693,1.099-.052,.016-.104,.036-.156,.052,.042,.24,.089,.474,.161,.703,.203,.635,.396,1.172,.599,1.651,.031,.073,.057,.141,.089,.208,.141,.318,.313,.635,.526,.958,.599,.922,1.401,1.719,2.109,2.396,.526,.505,.906,.734,1.536,.609,.297-.057,.526-.224,.646-.464,.125-.245,.125-.552-.005-.839-.208-.464-.401-.948-.589-1.411Zm-15.146-20.047c.125,.224,.245,.453,.359,.677l.297,.563c.172,.318,.354,.63,.557,.927,.104,.151,.208,.297,.313,.438,.339,.474,.661,.927,.922,1.484,.177,.37,.422,.703,.667,1.026,.38-.365,.807-.661,1.266-.896,.188-.094,.385-.177,.578-.245,.047-.021,.094-.036,.146-.052-.005-.021-.005-.042-.01-.063-.005-.052-.016-.104-.021-.151-.01-.052-.016-.104-.026-.156s-.016-.104-.026-.151c-.01-.052-.021-.099-.031-.151-.005-.047-.016-.099-.026-.146s-.021-.094-.031-.146c-.01-.047-.021-.094-.036-.146-.01-.042-.021-.089-.031-.135-.016-.047-.026-.094-.042-.141-.01-.047-.026-.089-.036-.135-.016-.047-.026-.094-.042-.141-.01-.042-.026-.083-.042-.125-.016-.047-.031-.094-.042-.135l-.047-.125c-.016-.042-.031-.089-.047-.13s-.036-.078-.052-.12-.031-.083-.052-.125c-.016-.042-.036-.078-.052-.12s-.036-.083-.052-.12c-.021-.042-.042-.078-.063-.12-.016-.036-.036-.073-.052-.109-.021-.042-.047-.078-.068-.12-.021-.031-.036-.068-.057-.099-.026-.047-.052-.089-.078-.13-.016-.026-.031-.057-.047-.083-.047-.068-.094-.135-.135-.203-.188-.26-.396-.5-.599-.734-.276-.313-.563-.641-.786-1.026-.198-.344-.417-.708-.656-1.052-.25-.354-.49-.635-.74-.854-.25-.224-.885-.578-1.339-.578-.146,0-.276,.036-.365,.125-.286,.297-.151,1.151-.073,1.609,.005,.047,.01,.089,.016,.13,.068,.448,.172,.844,.328,1.234,.094,.24,.214,.49,.354,.75Zm-2.307,20.719c1.109-.563,1.927-1.495,2.719-2.401,.266-.302,.542-.615,.823-.911,.234-.245,.474-.49,.703-.729,.177-.177,.349-.354,.526-.531v-.005c.073-.073,.146-.151,.219-.229,.219-.224,.422-.443,.589-.693-.031-.026-.063-.047-.094-.073l-.01-.01c-.016-.01-.026-.016-.036-.026-.531-.432-.969-.932-1.307-1.495-.01-.016-.016-.036-.026-.052-.26,.151-.542,.333-.854,.557-.578,.406-1.151,.865-1.703,1.307-.089,.073-.177,.146-.271,.219-.151,.12-.302,.24-.448,.365-.443,.37-.87,.755-1.24,1.198l-.021,.026c-.182,.219-.396,.432-.599,.635-.333,.328-.677,.667-.917,1.078-.167,.281-.245,.62-.219,.891,.026,.266,.161,.37,.313,.495,.089,.068,.177,.135,.255,.24,.047,.063,.083,.12,.115,.172,.125,.193,.177,.271,.526,.25,.307-.021,.646-.12,.958-.276Zm13.651-.906c-.219-.328-.391-.646-.531-.969-.234-.542-.453-1.135-.693-1.87-.073-.229-.12-.464-.161-.703-.021,.005-.042,.016-.068,.021-.427,.12-1.411,.188-2.052,.203,.156,1.281,.12,2.547-.104,3.771l-.005,.016c-.042,.24-.089,.474-.13,.714,.047,.26,.099,.51,.167,.74l.01,.026c.182,.62,.557,1.917,1.328,1.87,.458-.031,.578-.214,.776-.516,.036-.057,.073-.109,.115-.172,.016-.026,.052-.031,.078-.016,.073,.042,.156,.052,.245,.026,.281-.078,.568-.453,.688-.672,.208-.385,.286-.833,.333-1.182,.042-.328,.052-.734,.026-1.115-.005-.057-.01-.109-.021-.172Zm-6.229-2.917c.063-.24,.125-.458,.182-.667-.104-.031-.208-.063-.323-.104-.604-.224-1.141-.505-1.609-.839-.172,.26-.385,.49-.594,.708-.078,.078-.151,.151-.224,.229-.375,.568-.609,1.042-.781,1.578-.125,.396-.193,.776-.271,1.177-.047,.245-.094,.5-.156,.76-.042,.188-.104,.37-.167,.547-.172,.5-.333,.969-.104,1.469,.156,.333,.365,.547,.62,.625,.318,.099,.719,.005,1.188-.276,.432-.26,1.052-.672,1.411-1.224,.182-1.396,.505-2.74,.828-3.984Zm-6.219-1.344c.094-.073,.182-.146,.271-.219,.073-.057,.141-.115,.208-.167,.49-.391,.99-.792,1.5-1.146,.318-.224,.599-.406,.865-.563-.302-.542-.5-1.135-.599-1.766-.005-.031-.01-.063-.016-.099-.214,.052-.427,.104-.63,.177-.089,.036-.182,.068-.271,.099-.672,.234-1.37,.484-1.943,.932-.276,.214-.531,.458-.781,.693-.078,.073-.151,.146-.229,.214-.12,.115-.255,.214-.391,.307-.042,.031-.089,.063-.135,.089l-.016,.016q-.005,0-.005,.005c-.167,.109-.354,.24-.51,.396-.563,.557-1.031,1.38-.661,2.005,.292,.49,1.063,.682,1.651,.589,.505-.594,1.089-1.078,1.693-1.563Zm-2.224-1.542l.01-.005c.172-.115,.354-.24,.51-.385,.073-.068,.151-.141,.229-.214,.25-.234,.51-.479,.786-.698,.589-.464,1.292-.714,1.979-.953l.266-.094c.214-.078,.438-.135,.656-.188-.063-.474-.078-.969-.052-1.464-.13-.005-.255-.016-.37-.042-.474-.089-.906-.089-1.365-.083-.203,0-.422,0-.641-.01-.438-.016-.885-.068-1.333-.146-.172,.047-.318,.104-.453,.172l-.156,.078c-.495,.245-1.167,.583-1.5,1.005-.109,.141-.125,.281-.146,.422-.016,.104-.031,.208-.083,.313-.063,.13-.167,.214-.266,.292-.12,.099-.229,.188-.266,.354-.083,.37,.109,.682,.286,.88,.453,.5,1.286,.839,1.906,.766Zm2.531-10.38c.094,.13,.182,.266,.271,.396,.344,.5,.698,1.016,1.141,1.443,.406,.396,.75,.703,1.078,.974,.083,.073,.177,.135,.276,.198,.286-.536,.635-1.016,1.036-1.417,.01-.01,.016-.016,.021-.026-.245-.328-.5-.672-.682-1.057-.255-.547-.573-.995-.911-1.469-.104-.141-.208-.286-.313-.438-.333-.484-.604-1-.865-1.505-.115-.219-.234-.448-.354-.672-.146-.255-.26-.5-.354-.74-.359-.135-.682-.203-.99-.203-.167,0-.333,.021-.5,.063-.49,.115-.896,.401-1.052,.745-.115,.25-.099,.526,.047,.807,.38,.745,.948,1.417,1.495,2.063l.156,.188c.156,.182,.318,.391,.5,.651Zm-3.531,2.078c.193,.052,.375,.099,.552,.135,.328,.063,.651,.141,.969,.219,.359,.089,.734,.177,1.115,.25,.74,.141,1.5,.344,2.26,.604,.13,.042,.271,.089,.422,.135,.219,.068,.448,.141,.677,.224,.073-.182,.156-.359,.245-.526-.104-.068-.203-.135-.297-.214-.328-.276-.672-.583-1.083-.979-.453-.438-.807-.958-1.151-1.464-.089-.13-.177-.255-.266-.385-.234-.141-.432-.25-.635-.333-.813-.349-1.995-.521-2.792-.135-.526,.26-.547,.802-.521,1.286,.026,.505,.13,.807,.401,1.156l.104,.026Zm9.557-8.885c-.135,.234-.203,.484-.193,.708,.021,.411,.057,.833,.099,1.24,.031,.339,.063,.688,.083,1.026l.021,.307c.005,.094,.01,.182,.016,.276,0,.031,.005,.063,.005,.099,.005,.057,.01,.115,.01,.177,.005,.031,.005,.068,.01,.099,0,.057,.005,.12,.01,.177,.005,.036,.005,.068,.01,.104,.005,.057,.005,.115,.01,.172,.005,.036,.01,.073,.01,.109,.005,.057,.01,.109,.016,.167,.005,.036,.01,.078,.016,.115,.005,.052,.01,.109,.016,.161,.005,.036,.01,.078,.016,.12,.005,.052,.01,.104,.016,.151,.01,.042,.016,.083,.021,.12,.005,.052,.016,.104,.021,.156,.005,.042,.016,.083,.021,.125,.01,.047,.016,.099,.026,.146,.01,.042,.016,.083,.026,.125,.01,.047,.016,.099,.026,.146l.031,.125c.01,.047,.021,.099,.031,.146l.031,.125c.016,.047,.026,.094,.042,.141,.01,.042,.026,.083,.036,.125,.016,.047,.026,.094,.042,.141,.01,.026,.021,.057,.031,.083,.016-.005,.036-.005,.052-.01,.182-.036,.37-.063,.557-.083,.333-.036,.656-.021,.964-.005h.125c.005-.068,.01-.135,.016-.208,.005-.125,.016-.255,.021-.385,.026-.521,.026-1.052,.021-1.568-.005-1-.01-2.036,.177-3.042,.073-.406,.156-.766,.25-1.089-.406-.589-.901-1.135-1.76-1.177-.354-.021-.734,.24-.979,.656Zm-2.656,1.75c.224,.38,.505,.698,.776,1.01,.203,.234,.417,.479,.604,.745,.641,.917,1.063,2.109,1.266,3.557,.146-.047,.297-.089,.453-.125-.396-1.172-.474-2.427-.552-3.646l-.021-.307c-.021-.344-.052-.688-.083-1.026-.036-.406-.078-.828-.099-1.245-.01-.234,.057-.5,.198-.75-.281-.552-.667-.844-1.281-.969-.51-.104-.922-.047-1.224,.161-.313,.219-.526,.615-.63,1.182-.021,.12-.036,.245-.052,.375,.24,.339,.453,.698,.646,1.036Zm8.24-1.938c.167,1.24-.063,2.328-.302,3.479-.042,.224-.094,.453-.135,.682-.12,.615-.26,1.234-.401,1.839l-.083,.354c-.073,.328-.151,.661-.245,.984-.016,.052-.031,.099-.052,.146,.422,.172,.802,.354,1.151,.547,.167-.401,.323-.854,.432-1.156,.042-.125,.078-.224,.099-.281,.188-.49,.302-1.026,.417-1.547,.047-.219,.099-.443,.151-.656,.229-.938,.563-1.844,.854-2.609,0,0,.005-.005,.005-.01,.109-.281,.224-.568,.328-.844l.12-.302c.172-.432,.135-.885-.083-1.099-.167-.161-.422-.172-.734-.026-.016,.005-.031,.005-.047,0s-.026-.016-.036-.031c-.052-.135-.135-.214-.25-.245-.255-.073-.667,.094-1.229,.5,.021,.115,.031,.214,.042,.276Zm7.839,10.125c-.203,.021-.417,.063-.62,.094-.146,.026-.297,.057-.448,.078-.161,.057-.313,.125-.495,.198l-.083,.036c-.281,.125-.594,.193-.901,.26-.167,.036-.339,.073-.505,.12-.073,.026-.156,.047-.245,.073-.547,.151-1.229,.339-1.792,.625,.016,.068,.026,.141,.036,.219v.005c.036,.292,.052,.589,.063,.911l.01,.141c1.01,.005,2.026,.083,3.125,.177,.99,.089,1.818,.234,2.547,.453,.073-.021,.146-.036,.214-.052,.151-.036,.313-.068,.432-.13,.286-.151,.5-.333,.693-.594,.167-.229,.563-.828,.526-1.448-.021-.286-.141-.521-.359-.708-.573-.495-1.651-.521-2.198-.458Zm-.786,11.219c.135-.135,.203-.297,.198-.49-.01-.224-.245-.599-.615-.974-.547-.172-1.063-.411-1.453-.599-.484-.24-.906-.583-1.313-.911-.099-.083-.203-.161-.302-.245-.193-.151-.391-.302-.589-.448-.276-.203-.557-.417-.828-.646-.01,.021-.021,.036-.031,.052-.24,.448-.526,.849-.859,1.203,.286,.234,.557,.484,.766,.724,.385,.432,.724,.896,1.047,1.427,.016,.01,.031,.016,.047,.026,.302,.135,.599,.297,.885,.458,.677,.38,1.313,.734,2.068,.76,.313,.01,.734-.089,.979-.339Z"/></g><path class="cls-5" d="M180.576,14.839l-.005-.151c-.016-.323-.031-.615-.068-.906v-.005c-.052-.432-.141-.786-.281-1.109-.031-.068-.063-.141-.099-.219-.224-.443-.536-.87-.932-1.271-.172-.172-.359-.339-.557-.495-.24-.188-.505-.365-.786-.531h-.005c-.417-.245-.88-.469-1.411-.677-.271-.104-.557-.208-.88-.313-.286-.094-.552-.099-.833-.099h-.125c-.073,0-.146-.005-.214-.005-.161-.01-.323-.016-.495-.016-.146,0-.297,.005-.453,.021-.182,.016-.365,.042-.542,.078-.297,.063-.583,.141-.865,.245-.193,.073-.38,.151-.568,.245-.49,.245-.943,.573-1.344,.979-.406,.406-.755,.896-1.047,1.448-.104,.193-.198,.396-.281,.604-.328,.797-.531,1.698-.583,2.604-.031,.521-.016,1.047,.057,1.552,.005,.052,.01,.104,.021,.161,.104,.672,.333,1.302,.672,1.875,.328,.552,.755,1.042,1.276,1.464,.01,.01,.021,.016,.036,.026l.01,.01c.495,.391,1.089,.714,1.766,.958,.13,.047,.25,.089,.365,.12,.286,.083,.552,.135,.807,.161,.125,.01,.25,.016,.375,.026,.214,.01,.438,.021,.656,.057,.057,.01,.24,.01,.484,.005,.599-.01,1.714-.078,2.161-.203,.109-.031,.219-.068,.323-.109,.604-.224,1.161-.583,1.651-1.073,.385-.38,.724-.828,.995-1.333,.042-.083,.089-.172,.13-.26,.151-.323,.276-.677,.365-1.042,.198-.786,.271-1.688,.224-2.823Zm-9.677,1.286c-.245-.01-.458-.125-.552-.292-.016-.026-.01-.063,.021-.078,.026-.016,.063-.01,.078,.021,.083,.141,.281,.234,.5,.234s.417-.094,.5-.234c.016-.031,.052-.036,.078-.021s.036,.052,.021,.078c-.089,.161-.292,.271-.521,.292,.536,1.406,1.875,2.344,3.365,2.344s2.828-.938,3.365-2.344c-.234-.021-.432-.13-.521-.292-.021-.026-.01-.063,.021-.078,.026-.016,.063-.01,.078,.021,.078,.141,.281,.234,.5,.234s.417-.094,.495-.234c.016-.031,.052-.036,.083-.021,.026,.016,.036,.052,.021,.078-.094,.167-.313,.281-.552,.292-.542,1.474-1.938,2.464-3.49,2.464s-2.948-.99-3.49-2.464Zm5.469-2.401c-.068,.49-.276,.844-.526,.844-.297,0-.542-.526-.542-1.182s.245-1.188,.542-1.188c.25,0,.458,.359,.526,.844-.156,.073-.255,.198-.255,.344,0,.141,.099,.271,.255,.339Zm-2.891-.682c-.156,.073-.255,.198-.255,.344,0,.141,.099,.271,.255,.339-.068,.49-.276,.844-.521,.844-.302,0-.547-.526-.547-1.182s.245-1.188,.547-1.188c.245,0,.453,.359,.521,.844Z"/><g class="cls-8"><path class="cls-6" d="M187.67,16.234l-.057-.042c-.339-.25-.729-.458-1.167-.635,.052-.016,.104-.026,.161-.042,.161-.031,.323-.073,.458-.141,.302-.156,.531-.354,.734-.625,.177-.24,.589-.87,.547-1.531-.016-.318-.151-.583-.396-.792-.292-.25-.708-.385-1.12-.453,.281-.135,.542-.302,.734-.495,.313-.313,.479-.755,.474-1.24-.01-.516-.224-1.021-.573-1.349-.188-.177-.37-.276-.646-.359-.266-.073-.302-.104-.479-.25-.031-.026-.063-.052-.099-.083-.318-.25-.625-.37-.948-.375,.135-.167,.26-.339,.38-.505,.292-.432,.625-1.104,.521-1.859-.052-.422-.276-.703-.594-.76-.333-.063-.547,.135-.755,.323-.042,.036-.078,.068-.12,.104-.318,.271-.688,.354-1.083,.438-.292,.063-.589,.13-.865,.271-.25,.13-.484,.292-.703,.469,.115-.25,.229-.521,.354-.813,.214-.5,.656-1.943,.161-2.594-.198-.26-.521-.359-.958-.297-.688,.104-1.01,.563-1.333,1.057-.13-.042-.276-.026-.443,.042,.104-.266,.208-.531,.307-.786l.12-.307c.193-.474,.141-.979-.115-1.229-.193-.182-.479-.208-.813-.073-.068-.13-.167-.219-.302-.255-.286-.083-.708,.078-1.281,.484-.156-.917-.38-1.422-.661-1.5-.13-.036-.271,.026-.411,.177-.073-.057-.156-.078-.245-.063-.391,.063-.813,.849-1.104,1.5-.12,.271-.224,.552-.318,.859-.396-.563-.922-1.115-1.797-1.156-.37-.021-.766,.224-1.031,.625-.292-.552-.693-.844-1.328-.969-.536-.109-.979-.052-1.307,.177-.344,.234-.573,.661-.682,1.255-.016,.089-.026,.172-.036,.26-.229-.307-.448-.557-.672-.755-.339-.302-1.427-.901-1.865-.448-.328,.339-.188,1.234-.109,1.714,.01,.047,.016,.089,.021,.125,.063,.411,.156,.781,.286,1.141-.531-.188-.995-.219-1.458-.115-.526,.125-.958,.438-1.13,.813-.13,.286-.115,.599,.047,.917,.385,.755,.958,1.432,1.51,2.083l.156,.188c.104,.12,.214,.255,.328,.411-.146-.078-.281-.146-.417-.203-.839-.359-2.057-.536-2.891-.13-.594,.286-.615,.875-.583,1.401,.021,.464,.115,.776,.333,1.099-.391-.099-.792-.172-1.172-.125-.375,.047-.75,.292-.922,.599s-.068,.484,.031,.656c.052,.083,.104,.177,.125,.292,.021,.12,.021,.229,.021,.333-.005,.203-.01,.391,.177,.641,.214,.297,.531,.474,.833,.646l.047,.026-.141,.063c-.406,.193-1.385,.964-1.151,1.557,.177,.438,1.042,.667,1.505,.786,.042,.01,.083,.021,.12,.031,.052,.016,.104,.026,.156,.042-.021,.073-.031,.141-.042,.208-.01,.099-.026,.188-.068,.276-.052,.104-.141,.177-.234,.25-.13,.104-.266,.214-.307,.422-.073,.333,.036,.672,.313,.984,.427,.479,1.188,.813,1.813,.818-.12,.089-.245,.182-.354,.292-.599,.594-1.089,1.469-.682,2.156,.266,.448,.896,.667,1.464,.667,.063,0,.12,0,.172-.005-.156,.182-.339,.359-.51,.531-.339,.339-.688,.682-.932,1.104-.177,.307-.266,.667-.234,.969,.031,.313,.198,.443,.354,.573,.083,.063,.167,.13,.234,.219,.042,.057,.078,.115,.109,.161,.13,.203,.214,.313,.521,.313,.036,0,.073-.005,.115-.005,.318-.021,.677-.125,1-.292,.495-.25,.932-.573,1.333-.932-.198,.573-.391,1.448-.063,1.911,.146,.203,.375,.307,.682,.307,.052,0,.109-.005,.172-.01,.469-.052,.75-.292,.995-.594,.021,.099,.052,.198,.099,.297,.167,.37,.401,.604,.693,.693,.094,.031,.193,.042,.297,.042,.286,0,.615-.109,.979-.328,.411-.245,.974-.62,1.349-1.12-.01,.104-.021,.208-.026,.313-.047,.557-.115,1.094-.188,1.661-.021,.146-.042,.292-.057,.443-.036,.297-.078,.625,.219,.911,.151,.141,.786,.276,1.422,.276,.219,0,.438-.016,.635-.052,.391-.078,.635-.224,.74-.448,.229-.5,.302-1.141,.365-1.708,.016-.141,.031-.276,.047-.411,.031-.229,.063-.469,.109-.74,.031,.151,.068,.297,.109,.438l.005,.021c.188,.641,.573,1.958,1.401,1.958h.052c.516-.036,.661-.26,.865-.573,.026-.036,.052-.078,.083-.125,.089,.042,.188,.042,.286,.016,.318-.089,.63-.484,.76-.729,.219-.401,.302-.865,.349-1.224,.042-.328,.052-.708,.026-1.089,.589,.844,1.333,1.583,1.995,2.214,.38,.37,.75,.672,1.302,.672,.104,0,.219-.01,.339-.031,.328-.068,.583-.255,.724-.531s.141-.62,0-.943c-.161-.359-.318-.734-.464-1.099,.036,.026,.078,.057,.12,.083,.365,.25,.698,.432,1.01,.552,.203,.078,.583,.156,.953,.156,.411,0,.818-.094,.948-.401,.193-.432-.25-1.219-.49-1.641-.021-.042-.042-.078-.063-.115-.12-.214-.245-.411-.375-.599,.172-.057,.333-.146,.464-.276,.161-.161,.234-.354,.229-.578-.005-.297-.292-.672-.505-.911,.427,.115,.828,.172,1.219,.172,.109,0,.219-.005,.323-.016,.755-.057,1.208-.526,1.302-1.344,.005-.021-.005-.042-.026-.057-.036-.026-.052-.047-.068-.083,.031-.016,.057-.036,.083-.068,.208-.255,.146-.969,.109-1.151-.01-.031-.005-.13-.005-.214v-.109c.302-.021,.563-.052,.802-.323,.036-.047,.078-.089,.115-.13,.167-.177,.328-.349,.359-.667,.073-.703-.75-1.302-1.24-1.656Zm1.125,1.646c-.031,.276-.161,.417-.328,.599-.042,.042-.078,.083-.12,.13-.214,.245-.443,.26-.755,.286l-.042,.005c-.208,.016-.432,.021-.656,.016-.911-.021-1.833-.208-2.729-.391-.12-.026-.24-.047-.359-.073-.74-.146-1.458-.354-2.068-.536-.266-.083-.536-.151-.802-.214-.146-.036-.297-.073-.443-.115,.172-.745,.24-1.594,.203-2.646,1.01,.005,2.021,.083,3.12,.177,.464,.042,.891,.094,1.292,.167,.271,.057,.526,.12,.766,.193,.646,.203,1.208,.474,1.672,.813l.057,.042c.469,.339,1.255,.911,1.193,1.547Zm-1.443,2.573h-.005c-.021,0-.042,.016-.052,.036s-.005,.047,.01,.068c.016,.016,.026,.031,.036,.052,.016,.031,.036,.068,.078,.104-.068,.521-.333,1.135-1.193,1.208-.536,.042-1.094-.031-1.703-.214-.547-.167-1.063-.406-1.453-.599-.474-.229-.87-.552-1.292-.896-.099-.083-.203-.161-.302-.245-.193-.151-.396-.302-.589-.448-.063-.047-.125-.094-.188-.135-.01-.01-.021-.021-.036-.031-.047-.036-.094-.073-.146-.109-.021-.016-.036-.031-.057-.047l-.125-.094c-.021-.021-.047-.036-.068-.057-.036-.026-.073-.057-.115-.089-.021-.021-.047-.042-.068-.063-.016-.01-.031-.021-.047-.036,.021-.036,.036-.068,.052-.109,.156-.323,.276-.677,.37-1.042,.151,.036,.297,.073,.443,.109,.266,.063,.542,.13,.802,.214,.609,.182,1.333,.391,2.073,.536,.12,.026,.245,.052,.365,.078,.901,.182,1.828,.37,2.745,.391h.156c.161,0,.318-.005,.469-.016v.099c0,.104,0,.193,.01,.24,.042,.229,.068,.859-.083,1.047-.026,.031-.057,.047-.089,.047Zm-2.021,5.5c-.214,.474-1.339,.344-1.755,.182-.307-.12-.63-.297-.984-.542-.094-.063-.182-.125-.271-.193-.016-.031-.026-.063-.042-.099-.323-.797-.656-1.625-1.068-2.391-.068-.125-.13-.24-.198-.354,.26,.125,.521,.266,.771,.406,.656,.37,1.339,.75,2.12,.776h.047c.13,0,.281-.016,.438-.057,.141,.193,.271,.396,.391,.625,.021,.031,.042,.068,.063,.109,.229,.406,.651,1.156,.49,1.536Zm-2.568,1.646c-.12,.24-.349,.406-.646,.464-.63,.125-1.01-.104-1.536-.609-.708-.677-1.51-1.474-2.109-2.396-.214-.323-.385-.641-.526-.958-.031-.068-.057-.135-.089-.208-.203-.479-.396-1.016-.599-1.651-.073-.229-.12-.464-.161-.703,.052-.016,.104-.036,.156-.052,.62-.229,1.188-.599,1.693-1.099,.021-.026,.047-.047,.068-.073,.016,.01,.026,.016,.036,.026,.016,.01,.031,.026,.047,.042,.016,.01,.026,.021,.042,.031,.016,.016,.031,.031,.047,.042s.026,.026,.042,.036c.016,.016,.031,.026,.047,.042,.016,.01,.026,.021,.036,.031,.021,.016,.036,.031,.052,.047,.01,.01,.021,.021,.036,.031l.047,.047,.031,.031c.021,.016,.036,.031,.052,.047l.031,.031c.016,.016,.031,.031,.047,.052,.01,.005,.016,.016,.026,.026,.021,.016,.036,.036,.057,.057,.005,.005,.01,.01,.016,.021,.026,.021,.047,.047,.068,.073,.099,.109,.193,.219,.281,.328,.271,.339,.521,.703,.76,1.099,.099,.167,.193,.333,.292,.516,.411,.76,.74,1.583,1.063,2.38,.188,.464,.38,.948,.589,1.411,.13,.286,.13,.594,.005,.839Zm-4.401-1.198c-.042,.349-.125,.797-.333,1.182-.12,.219-.406,.594-.688,.672-.089,.026-.172,.016-.245-.026-.026-.016-.063-.01-.078,.016-.042,.063-.078,.115-.115,.172-.198,.302-.318,.484-.776,.516-.766,.047-1.146-1.25-1.328-1.87l-.01-.026c-.068-.229-.12-.479-.167-.74,.042-.24,.089-.474,.13-.714l.005-.016c.224-1.224,.26-2.49,.104-3.771,.641-.016,1.625-.083,2.057-.203,.021-.005,.042-.016,.063-.021,.042,.24,.089,.474,.161,.703,.24,.734,.458,1.328,.693,1.87,.141,.323,.318,.641,.531,.969,.01,.063,.016,.115,.021,.172,.026,.38,.016,.786-.026,1.115Zm-4.021,.964c-.016,.13-.031,.266-.047,.411-.057,.557-.13,1.188-.349,1.672-.109,.224-.417,.328-.656,.375-.755,.151-1.797-.042-1.953-.188-.24-.229-.229-.479-.188-.813,.021-.151,.036-.297,.057-.443,.073-.568,.146-1.104,.188-1.667,.021-.266,.052-.531,.083-.797,.042-.313,.089-.625,.146-.932,.177-.958,.401-1.88,.63-2.755,.063-.24,.12-.458,.182-.661,.266,.073,.521,.125,.766,.146,.125,.01,.255,.016,.375,.026,.214,.01,.432,.021,.651,.057,.047,.005,.151,.01,.26,.01,.083,0,.172-.005,.24-.005h.021c.151,1.271,.12,2.526-.104,3.745l-.005,.016c-.042,.24-.089,.484-.13,.724v.016c-.073,.406-.125,.745-.167,1.063Zm-4.443,.042c-.469,.281-.87,.375-1.188,.276-.255-.078-.464-.292-.62-.625-.229-.5-.068-.969,.104-1.469,.063-.177,.125-.359,.167-.547,.063-.26,.109-.516,.156-.76,.078-.401,.146-.776,.271-1.177,.172-.536,.406-1.01,.781-1.578,.073-.078,.146-.151,.224-.229,.208-.219,.422-.448,.594-.708,.469,.333,1.005,.615,1.609,.839,.115,.042,.219,.073,.323,.104-.057,.208-.12,.427-.182,.667-.323,1.245-.646,2.589-.828,3.984-.359,.552-.979,.964-1.411,1.224Zm-3.766-.375c-.307-.443-.089-1.401,.161-2.01,.438-.417,.839-.87,1.229-1.323,.266-.302,.536-.615,.818-.906,.234-.245,.474-.49,.703-.729l.141-.141c-.224,.391-.38,.75-.505,1.146-.13,.406-.198,.786-.276,1.193-.047,.245-.094,.495-.156,.755-.042,.177-.104,.359-.161,.536-.125,.354-.25,.719-.219,1.094-.25,.328-.516,.583-.99,.635-.349,.042-.599-.042-.745-.25Zm-2.901-.984c-.031-.052-.068-.109-.115-.172-.078-.104-.167-.172-.255-.24-.151-.125-.281-.229-.313-.495-.026-.271,.057-.609,.219-.891,.24-.411,.583-.75,.917-1.078,.203-.203,.417-.417,.599-.635l.021-.021c.375-.448,.797-.833,1.24-1.203,.146-.125,.297-.245,.448-.365,.094-.073,.182-.146,.276-.219,.547-.443,1.12-.901,1.698-1.307,.313-.224,.594-.406,.854-.557,.01,.016,.016,.036,.026,.052,.339,.563,.776,1.068,1.307,1.495,.01,.01,.021,.016,.036,.026l.01,.01c.031,.026,.063,.047,.094,.073-.167,.25-.37,.469-.589,.698-.073,.073-.146,.151-.219,.224v.005c-.177,.177-.349,.354-.526,.531-.229,.24-.469,.484-.703,.729-.281,.297-.557,.609-.823,.911-.792,.906-1.609,1.839-2.719,2.401-.313,.156-.651,.255-.958,.276-.349,.021-.401-.057-.526-.25Zm-.656-4.219c-.37-.625,.099-1.448,.661-2.005,.156-.156,.344-.286,.51-.396q0-.005,.005-.005l.016-.016c.047-.026,.094-.057,.135-.089,.135-.094,.271-.193,.391-.307,.078-.068,.151-.141,.229-.214,.25-.234,.505-.479,.781-.693,.573-.448,1.271-.698,1.943-.932,.089-.031,.182-.063,.271-.099,.203-.073,.417-.125,.63-.177,.005,.036,.01,.068,.016,.099,.099,.63,.297,1.224,.599,1.766-.266,.156-.547,.339-.865,.563-.51,.354-1.01,.755-1.5,1.146-.068,.052-.135,.109-.208,.167-.089,.073-.177,.146-.271,.219-.604,.484-1.188,.969-1.693,1.563-.589,.094-1.359-.099-1.651-.589Zm-.786-3.281c-.177-.198-.37-.51-.286-.88,.036-.167,.146-.255,.266-.354,.099-.078,.203-.161,.266-.292,.052-.104,.068-.208,.083-.313,.016-.141,.036-.281,.146-.422,.333-.422,1.005-.76,1.5-1.005l.156-.078c.135-.068,.281-.125,.453-.172,.448,.078,.896,.13,1.333,.146,.219,.01,.438,.01,.641,.01,.458-.005,.891-.005,1.365,.083,.115,.026,.24,.036,.37,.042-.026,.495-.01,.99,.052,1.464-.219,.052-.443,.109-.656,.188l-.266,.094c-.688,.24-1.391,.49-1.979,.953-.276,.219-.536,.464-.786,.698-.078,.073-.156,.146-.229,.214-.156,.146-.339,.271-.51,.385l-.01,.005c-.62,.073-1.453-.266-1.906-.766Zm-1.422-2.969c-.193-.484,.693-1.214,1.094-1.401,.073-.031,.146-.063,.224-.094,.729,.401,1.573,.714,2.453,.896-.099,.036-.188,.078-.271,.12-.052,.026-.104,.047-.156,.078-.505,.25-1.193,.589-1.536,1.036-.042,.052-.073,.104-.094,.156-.057-.01-.115-.026-.167-.042-.036-.01-.078-.021-.125-.031-.443-.12-1.271-.333-1.422-.719Zm1.276-1.656l-.083-.047c-.292-.167-.594-.339-.797-.609-.161-.219-.161-.375-.156-.573,.005-.104,.005-.224-.021-.359-.026-.13-.083-.234-.141-.328-.094-.167-.167-.286-.026-.536,.151-.271,.5-.5,.828-.536,.417-.052,.865,.052,1.292,.161l.125,.031c.198,.052,.38,.099,.563,.135,.323,.068,.646,.146,.958,.219,.182,.047,.37,.089,.557,.13s.375,.083,.568,.12c.458,.089,.927,.198,1.396,.333,.281,.083,.568,.172,.849,.266,.13,.047,.271,.094,.422,.141,.052,.016,.109,.031,.161,.052l.047,.016c.042,.01,.083,.021,.12,.036,.021,.005,.047,.016,.068,.021,.031,.01,.068,.026,.104,.036,.021,.005,.047,.016,.068,.026,.031,.01,.068,.021,.099,.031-.307,.776-.5,1.641-.557,2.51-.125-.01-.245-.021-.354-.042-.057-.01-.115-.021-.167-.031-.021,0-.042-.005-.057-.005-.042-.005-.078-.01-.115-.016-.021,0-.042-.005-.063-.005-.036-.005-.068-.005-.099-.01-.026,0-.047-.005-.068-.005-.036,0-.068-.005-.099-.005-.021,0-.042-.005-.068-.005h-.094c-.026-.005-.047-.005-.068-.005h-.49c-.203,0-.417,0-.635-.01-.438-.016-.88-.063-1.328-.146-.99-.188-1.938-.526-2.74-.99Zm1.068-5.38c.797-.385,1.979-.214,2.792,.135,.203,.083,.401,.193,.635,.333,.089,.13,.177,.255,.266,.385,.344,.505,.698,1.026,1.151,1.464,.411,.396,.755,.703,1.083,.979,.094,.078,.193,.146,.297,.214-.089,.167-.172,.344-.245,.526-.229-.083-.458-.156-.677-.224-.151-.047-.292-.094-.422-.135-.76-.26-1.521-.464-2.26-.604-.38-.073-.755-.161-1.115-.25-.318-.078-.641-.156-.969-.219-.177-.036-.359-.083-.552-.135l-.104-.026c-.271-.349-.375-.651-.401-1.156-.026-.484-.005-1.026,.521-1.286Zm1.365-2.51c-.146-.281-.161-.557-.047-.807,.156-.344,.563-.63,1.052-.745,.167-.042,.333-.063,.5-.063,.307,0,.63,.068,.99,.203,.094,.24,.208,.484,.354,.74,.12,.224,.24,.453,.354,.672,.26,.505,.531,1.021,.865,1.505,.104,.151,.208,.297,.313,.438,.339,.474,.656,.922,.911,1.469,.182,.385,.438,.729,.682,1.057-.005,.01-.01,.016-.021,.026-.401,.401-.75,.88-1.036,1.417-.099-.063-.193-.125-.276-.198-.328-.271-.672-.578-1.078-.974-.443-.427-.797-.943-1.141-1.443-.089-.13-.177-.266-.271-.396-.182-.26-.344-.469-.5-.651l-.156-.188c-.547-.646-1.115-1.318-1.495-2.063Zm2.245-2.844c-.073-.458-.208-1.313,.078-1.609,.089-.089,.219-.125,.365-.125,.453,0,1.089,.354,1.339,.578,.25,.219,.49,.5,.74,.854,.24,.344,.458,.708,.656,1.052,.224,.385,.51,.714,.786,1.026,.203,.234,.411,.474,.599,.734,.042,.068,.089,.135,.135,.203,.016,.026,.031,.057,.047,.083,.026,.042,.052,.083,.078,.13,.021,.031,.036,.068,.057,.099,.021,.042,.042,.078,.068,.12,.016,.036,.036,.073,.052,.109,.021,.042,.042,.078,.063,.12,.016,.036,.031,.078,.052,.12,.016,.036,.036,.078,.052,.12,.021,.042,.036,.083,.052,.125s.031,.078,.047,.12c.021,.042,.036,.089,.052,.13s.031,.083,.042,.125c.016,.042,.031,.089,.047,.135,.016,.042,.026,.083,.042,.125,.016,.047,.026,.094,.042,.141,.01,.047,.026,.089,.036,.135,.016,.047,.026,.094,.036,.141,.016,.047,.026,.094,.036,.135,.01,.052,.026,.099,.036,.146,.01,.052,.021,.099,.031,.146s.021,.099,.026,.146c.01,.052,.021,.099,.031,.151,.01,.047,.016,.099,.026,.151,.005,.052,.016,.104,.026,.156,.005,.047,.016,.099,.021,.151,0,.021,.005,.042,.01,.063-.052,.016-.099,.031-.146,.052-.193,.068-.391,.151-.578,.245-.458,.234-.885,.531-1.266,.896-.245-.323-.49-.656-.667-1.026-.26-.557-.583-1.01-.922-1.484-.104-.141-.208-.286-.313-.438-.203-.297-.385-.609-.557-.927-.104-.188-.198-.375-.297-.563-.115-.224-.234-.453-.359-.677-.141-.26-.26-.51-.354-.75-.156-.391-.26-.786-.328-1.234-.005-.042-.01-.083-.021-.13Zm2.63-.349c.016-.13,.031-.255,.052-.375,.104-.568,.318-.964,.63-1.182,.302-.208,.714-.266,1.224-.161,.615,.125,1,.417,1.281,.969-.141,.25-.208,.516-.198,.75,.021,.417,.063,.839,.099,1.245,.031,.339,.063,.682,.083,1.026l.021,.307c.078,1.219,.156,2.474,.552,3.646-.156,.036-.307,.078-.453,.125-.203-1.448-.625-2.641-1.266-3.557-.188-.266-.401-.51-.604-.745-.271-.313-.552-.63-.776-1.01-.193-.339-.406-.698-.646-1.036Zm4.281-1.37c.859,.042,1.354,.589,1.76,1.177-.094,.323-.177,.682-.25,1.089-.188,1.005-.182,2.042-.177,3.042,.005,.516,.005,1.047-.021,1.568-.005,.13-.016,.26-.021,.385-.005,.073-.01,.141-.016,.208h-.125c-.307-.016-.63-.031-.964,.005-.188,.016-.375,.047-.557,.083-.016,.005-.036,.005-.052,.01-.01-.026-.021-.057-.031-.083-.016-.047-.026-.094-.042-.141-.01-.042-.026-.083-.036-.125-.016-.047-.026-.094-.042-.141l-.031-.125c-.01-.047-.021-.099-.031-.146l-.031-.125c-.01-.047-.016-.099-.026-.146-.01-.042-.016-.083-.026-.125-.01-.047-.016-.099-.026-.151-.005-.036-.016-.078-.021-.12-.005-.052-.016-.104-.021-.156-.005-.036-.01-.078-.021-.12-.005-.052-.01-.104-.016-.151-.005-.042-.01-.083-.016-.12-.005-.057-.01-.109-.016-.161-.005-.036-.01-.078-.016-.115-.005-.057-.01-.109-.016-.167,0-.036-.005-.073-.01-.109-.005-.057-.005-.115-.01-.172-.005-.036-.005-.068-.01-.104-.005-.063-.01-.12-.01-.177-.005-.031-.005-.068-.01-.099,0-.063-.005-.12-.01-.177,0-.036-.005-.068-.005-.099-.005-.094-.01-.182-.016-.276l-.021-.307c-.021-.339-.052-.688-.083-1.026-.042-.406-.078-.828-.099-1.24-.01-.224,.057-.474,.193-.714,.245-.411,.625-.672,.979-.651Zm1.88,1.188c.099-.349,.214-.661,.349-.964,.385-.865,.755-1.385,1.01-1.432,.073-.01,.13,.016,.188,.078,.01,.01,.026,.021,.047,.016,.016,0,.031-.005,.042-.021,.125-.151,.234-.214,.333-.188,.234,.063,.448,.609,.594,1.495,.016,.104,.026,.188,.036,.255,0,.021,.005,.042,.005,.057,.167,1.219-.057,2.297-.297,3.438-.047,.224-.094,.453-.135,.688-.12,.609-.266,1.229-.401,1.828l-.083,.359c-.073,.323-.151,.656-.245,.974l-.047,.141c-.01-.005-.026-.01-.036-.016-.271-.104-.557-.208-.885-.318-.302-.099-.578-.099-.87-.104h-.094l.016-.203c.01-.125,.021-.255,.026-.391,.026-.521,.021-1.057,.021-1.573-.005-.995-.01-2.026,.172-3.021,.031-.156,.057-.302,.089-.443,.052-.24,.104-.453,.167-.656Zm3.911-1.495c.115,.031,.198,.109,.25,.245,.01,.016,.021,.026,.036,.031s.031,.005,.047,0c.313-.146,.568-.135,.734,.026,.219,.214,.255,.667,.083,1.099l-.12,.302c-.104,.276-.219,.563-.328,.844,0,.005-.005,.01-.005,.01-.292,.766-.625,1.672-.854,2.615-.052,.208-.104,.432-.151,.651-.115,.521-.229,1.057-.417,1.547-.021,.057-.057,.156-.099,.281-.109,.302-.266,.755-.432,1.156-.349-.193-.729-.375-1.151-.547,.021-.047,.036-.094,.052-.146,.094-.323,.172-.656,.245-.984l.083-.354c.141-.604,.281-1.224,.401-1.839,.047-.229,.094-.458,.141-.682,.234-1.151,.464-2.24,.297-3.479-.01-.063-.021-.156-.042-.276,.563-.406,.974-.573,1.229-.5Zm1.271,2.625c.026,.01,.057,0,.078-.021,.333-.51,.62-.953,1.276-1.047,.396-.057,.682,.026,.849,.25,.411,.542,.12,1.776-.177,2.469-.161,.385-.313,.729-.458,1.042-.26,.224-.5,.469-.734,.714l-.052,.057c-1.094,1.135-1.911,2.177-2.526,3.224-.203-.151-.417-.292-.646-.427h-.005c-.01-.005-.016-.01-.026-.021,.167-.406,.328-.87,.438-1.177,.047-.12,.078-.219,.099-.276,.188-.495,.307-1.036,.422-1.563,.052-.219,.099-.438,.151-.651,.219-.891,.531-1.755,.813-2.495,.198-.115,.37-.146,.5-.078Zm3.37,1.896c.396-.089,.802-.177,1.141-.469,.042-.031,.078-.068,.12-.104,.203-.188,.38-.344,.656-.292,.38,.068,.474,.479,.5,.656,.099,.714-.219,1.359-.505,1.776-.13,.193-.281,.391-.443,.578-.047,.005-.094,.016-.146,.026-.01,0-.021,.005-.026,.016-.104,.104-.214,.208-.323,.313-.391,.365-.875,.656-1.339,.938-.333,.198-.672,.406-.984,.635-.76,.573-1.406,1.188-2.021,1.943-.089,.104-.188,.203-.297,.297-.198-.313-.443-.615-.724-.901-.177-.177-.37-.349-.568-.505l-.063-.047c.609-1.036,1.422-2.073,2.516-3.208l.052-.057c.484-.5,1.005-1.016,1.62-1.333,.266-.135,.557-.198,.833-.26Zm3.125,2.964c.255,.073,.422,.167,.594,.328,.328,.307,.531,.781,.536,1.266,.01,.453-.146,.865-.438,1.156-.219,.224-.536,.401-.87,.547-.365-.036-.708-.026-.948,0-.214,.026-.422,.063-.63,.099-.146,.026-.297,.052-.453,.073,0,0-.005,0-.005,.005h-.005c-.161,.057-.323,.125-.505,.203l-.083,.036c-.271,.12-.578,.188-.875,.25-.172,.042-.349,.078-.516,.125-.073,.021-.156,.047-.245,.068-.542,.151-1.214,.344-1.781,.62-.052-.297-.13-.557-.234-.802-.031-.073-.068-.146-.104-.224-.052-.099-.109-.198-.167-.297,.12-.104,.229-.208,.328-.328,.604-.74,1.245-1.354,2-1.917,.302-.229,.641-.432,.969-.63,.474-.286,.964-.583,1.359-.953,.109-.104,.214-.203,.313-.302,.406-.078,.76,.021,1.141,.323,.036,.031,.068,.057,.099,.083,.182,.151,.234,.188,.521,.271Zm1.443,4.583c.036,.62-.359,1.219-.526,1.448-.193,.26-.406,.443-.693,.594-.12,.063-.281,.094-.432,.13-.068,.016-.141,.031-.214,.052-.729-.219-1.557-.365-2.547-.453-1.099-.094-2.115-.172-3.125-.177l-.01-.141c-.01-.328-.031-.62-.063-.911v-.005c-.01-.078-.021-.151-.036-.219,.563-.286,1.245-.474,1.792-.625,.089-.026,.172-.047,.245-.073,.167-.047,.339-.083,.505-.12,.307-.068,.62-.135,.901-.26l.083-.036c.182-.073,.333-.141,.495-.198,.151-.026,.302-.052,.448-.078,.203-.036,.417-.073,.62-.094,.547-.063,1.625-.036,2.198,.458,.219,.188,.339,.422,.359,.708Zm-7.88,4.432c-.089,.365-.214,.719-.365,1.042-.042,.089-.089,.177-.13,.26-.271,.505-.609,.953-.995,1.333-.49,.49-1.047,.849-1.651,1.073-.104,.042-.214,.078-.328,.109-.443,.125-1.557,.193-2.156,.203-.245,.005-.427,.005-.484-.005-.219-.036-.443-.047-.656-.057-.125-.01-.25-.016-.375-.026-.26-.026-.521-.078-.807-.161-.115-.031-.234-.073-.365-.12-.677-.245-1.271-.568-1.766-.958l-.01-.01c-.016-.01-.026-.016-.036-.026-.521-.422-.953-.911-1.276-1.464-.339-.573-.568-1.203-.672-1.875-.01-.057-.016-.109-.026-.161-.068-.505-.083-1.031-.052-1.552,.052-.906,.25-1.807,.583-2.604,.083-.208,.177-.411,.281-.604,.292-.552,.641-1.042,1.047-1.448,.401-.406,.854-.734,1.344-.979,.182-.094,.375-.172,.568-.245,.281-.104,.568-.182,.865-.245,.177-.036,.359-.063,.542-.078,.156-.016,.307-.021,.453-.021,.172,0,.333,.005,.495,.016,.068,0,.141,.005,.208,.005h.13c.281,0,.547,.005,.833,.099,.323,.104,.609,.208,.88,.313,.531,.208,.995,.432,1.411,.677h.005c.281,.167,.547,.344,.786,.531,.198,.156,.385,.323,.557,.495,.396,.401,.708,.828,.932,1.271,.036,.078,.068,.151,.099,.219,.141,.323,.229,.677,.281,1.109v.005c.036,.292,.052,.583,.068,.906l.005,.151c.047,1.135-.026,2.036-.224,2.823Zm3.557,5.958c-.755-.026-1.391-.38-2.068-.76-.286-.161-.583-.323-.885-.458-.016-.01-.031-.016-.047-.026-.323-.531-.661-.995-1.047-1.427-.208-.24-.479-.49-.766-.724,.333-.354,.62-.755,.859-1.203,.01-.016,.021-.031,.031-.052,.271,.229,.552,.443,.828,.646,.198,.146,.396,.297,.589,.448,.099,.083,.203,.161,.302,.245,.406,.328,.828,.672,1.313,.911,.391,.188,.906,.427,1.453,.599,.37,.375,.604,.75,.615,.974,.005,.193-.063,.354-.198,.49-.245,.25-.667,.349-.979,.339Zm-9.521-5.031c-1.552,0-2.948-.99-3.49-2.464-.245-.01-.458-.125-.552-.292-.016-.026-.01-.063,.021-.078,.026-.016,.063-.01,.078,.021,.083,.141,.281,.234,.5,.234s.417-.094,.5-.234c.016-.031,.052-.036,.078-.021s.036,.052,.021,.078c-.089,.161-.292,.271-.521,.292,.536,1.406,1.875,2.344,3.365,2.344s2.828-.938,3.365-2.344c-.234-.021-.432-.13-.521-.292-.021-.026-.01-.063,.021-.078,.026-.016,.063-.01,.078,.021,.078,.141,.281,.234,.5,.234s.417-.094,.495-.234c.016-.031,.052-.036,.083-.021,.026,.016,.036,.052,.021,.078-.094,.167-.313,.281-.552,.292-.542,1.474-1.938,2.464-3.49,2.464Zm1.724-5.203c0,.141,.099,.271,.255,.339-.068,.49-.276,.844-.526,.844-.297,0-.542-.526-.542-1.182s.245-1.188,.542-1.188c.25,0,.458,.359,.526,.844-.156,.073-.255,.198-.255,.344Zm-3.156-1.188c.245,0,.453,.359,.521,.844-.156,.073-.255,.198-.255,.344,0,.141,.099,.271,.255,.339-.068,.49-.276,.844-.521,.844-.302,0-.547-.526-.547-1.182s.245-1.188,.547-1.188Z"/></g></svg>