<?xml version="1.0" encoding="UTF-8"?><svg id="Laag_1" xmlns="http://www.w3.org/2000/svg" xmlns:xlink="http://www.w3.org/1999/xlink" viewBox="0 0 89.901 95.962"><defs><style>.cls-1{fill:none;}.cls-2{clip-path:url(#clippath);}.cls-3{fill:#fdf9f1;}.cls-4{fill:#c16d02;}.cls-5{fill:#3c7f72;}</style><clipPath id="clippath"><rect class="cls-1" y="6.061" width="89.901" height="89.901"/></clipPath></defs><g class="cls-2"><path class="cls-4" d="M44.859,6.014C20.099,6.014-.047,26.16-.047,50.921s20.146,44.911,44.906,44.911,44.906-20.146,44.906-44.911S69.62,6.014,44.859,6.014Zm11.167,46.49h-7.307v26.047h-10.823v-26.047h-5.146v-9.203h5.146v-5.953c0-4.266,2.026-10.927,10.922-10.927l8.021,.031v8.932h-5.823c-.948,0-2.292,.474-2.292,2.51v5.406h8.245l-.943,9.203Z"/></g><path class="cls-5" d="M74.854,15.316c11.766-20.422-14.708-20.422-2.943,0-11.766-20.417-25.005,2.552-1.474,2.552-23.531,0-10.292,22.969,1.474,2.552-11.766,20.417,14.708,20.417,2.943,0,11.766,20.417,25-2.552,1.469-2.552,23.531,0,10.297-22.969-1.469-2.552Z"/><path class="cls-3" d="M75.786,17.868c0,.318-.063,.625-.182,.922-.12,.292-.297,.557-.521,.781s-.484,.401-.781,.521c-.297,.125-.604,.188-.922,.188s-.625-.063-.922-.188c-.292-.12-.552-.297-.781-.521-.224-.224-.396-.49-.521-.781-.12-.297-.182-.604-.182-.922,0-.323,.063-.63,.182-.927,.125-.292,.297-.552,.521-.781,.229-.224,.49-.401,.781-.521,.297-.125,.604-.182,.922-.182s.625,.057,.922,.182c.297,.12,.557,.297,.781,.521,.224,.229,.401,.49,.521,.781,.12,.297,.182,.604,.182,.927Z"/></svg>