<?xml version="1.0" encoding="UTF-8"?><svg id="Laag_1" xmlns="http://www.w3.org/2000/svg" xmlns:xlink="http://www.w3.org/1999/xlink" viewBox="0 0 89.802 95.875"><defs><style>.cls-1{fill:none;}.cls-2{clip-path:url(#clippath);}.cls-3{fill:#fdf9f1;}.cls-4{fill:#c16d02;}.cls-5{fill:#3c7f72;}</style><clipPath id="clippath"><rect class="cls-1" y="6.073" width="89.802" height="89.802"/></clipPath></defs><g class="cls-2"><path class="cls-4" d="M44.901,6.073C20.099,6.073,0,26.172,0,50.974s20.099,44.901,44.901,44.901,44.901-20.099,44.901-44.901c-.042-24.802-20.135-44.901-44.901-44.901Zm-13.177,68.813h-10.536V40.906h10.536v33.979Zm-5.25-38.49c-3.38,0-6.141-2.76-6.141-6.141s2.76-6.146,6.141-6.146,6.141,2.76,6.141,6.146-2.76,6.141-6.141,6.141Zm44.823,38.49h-10.536v-16.99c0-2.411,0-8.396-5.365-8.396-6.104,0-6.49,6.177-6.49,6.177v19.208h-10.5V40.906h10.536v4.667c2.49-5.057,7.62-5.443,10.964-5.443,3.813,0,7.229,1.474,9.177,4.74,1.672,2.76,2.214,6.766,2.214,13.026v16.99Z"/></g><path class="cls-5" d="M73.62,15.297c11.75-20.396-14.693-20.396-2.938,0-11.755-20.396-24.974,2.547-1.469,2.547-23.505,0-10.286,22.948,1.469,2.552-11.755,20.396,14.688,20.396,2.938,0,11.75,20.396,24.974-2.552,1.469-2.552,23.505,0,10.281-22.943-1.469-2.547Z"/><path class="cls-3" d="M74.552,17.844c0,.323-.057,.63-.182,.922-.12,.297-.292,.557-.521,.781-.224,.229-.484,.401-.781,.526-.292,.12-.599,.182-.917,.182s-.625-.063-.922-.182c-.292-.125-.552-.297-.776-.526-.229-.224-.401-.484-.526-.781-.12-.292-.182-.599-.182-.922,0-.318,.063-.625,.182-.917,.125-.297,.297-.557,.526-.781,.224-.229,.484-.401,.776-.526,.297-.12,.604-.182,.922-.182s.625,.063,.917,.182c.297,.125,.557,.297,.781,.526,.229,.224,.401,.484,.521,.781,.125,.292,.182,.599,.182,.917Z"/></svg>