<?xml version="1.0" encoding="UTF-8"?><svg id="Laag_1" xmlns="http://www.w3.org/2000/svg" xmlns:xlink="http://www.w3.org/1999/xlink" viewBox="0 0 90.506 96.068"><defs><style>.cls-1{fill:none;}.cls-2{clip-path:url(#clippath);}.cls-3{fill:#fdf9f1;}.cls-4{fill:#c16d02;}.cls-5{fill:#3c7f72;}</style><clipPath id="clippath"><rect class="cls-1" y="6.068" width="90" height="90"/></clipPath></defs><path class="cls-4" d="M45,41.094c-5.495,0-9.974,4.479-9.974,9.974s4.479,9.974,9.974,9.974,9.974-4.479,9.974-9.974-4.484-9.974-9.974-9.974Z"/><path class="cls-4" d="M58.401,26.599H31.594c-6.078,0-11.063,4.948-11.063,11.068v26.802c0,6.078,4.948,11.068,11.063,11.068h26.807c6.078,0,11.063-4.948,11.063-11.068v-26.802c-.036-6.12-4.984-11.068-11.063-11.068Zm-13.401,39.469c-8.302,0-15.042-6.74-15.042-15.042s6.74-15.036,15.042-15.036,15.036,6.74,15.036,15.036c-.036,8.302-6.781,15.042-15.036,15.042Zm16.089-27.547c-1.984,0-3.625-1.635-3.625-3.625s1.641-3.62,3.625-3.62,3.625,1.635,3.625,3.62c0,2.026-1.599,3.625-3.625,3.625Z"/><g class="cls-2"><path class="cls-4" d="M45,6.068C20.141,6.068,0,26.208,0,51.068s20.141,45,45,45,45-20.146,45-45c-.042-24.859-20.182-45-45-45Zm29.49,58.401c0,8.885-7.245,16.13-16.13,16.13H31.594c-8.88,0-16.13-7.245-16.13-16.13v-26.802c0-8.885,7.25-16.13,16.13-16.13h26.807c8.88,0,16.13,7.245,16.13,16.13v26.802h-.042Z"/></g><path class="cls-5" d="M75.979,15.328c11.781-20.438-14.724-20.438-2.943,0-11.781-20.438-25.031,2.557-1.474,2.557-23.557,0-10.307,22.995,1.474,2.552-11.781,20.443,14.724,20.443,2.943,0,11.781,20.443,25.031-2.552,1.474-2.552,23.557,0,10.307-22.995-1.474-2.557Z"/><path class="cls-3" d="M76.917,17.885c0,.318-.063,.625-.182,.922-.125,.297-.297,.557-.526,.781-.224,.229-.484,.401-.781,.526-.292,.12-.599,.182-.922,.182-.318,0-.625-.063-.922-.182-.292-.125-.552-.297-.781-.526-.224-.224-.396-.484-.521-.781-.12-.297-.182-.604-.182-.922,0-.323,.063-.63,.182-.927,.125-.297,.297-.557,.521-.781,.229-.229,.49-.401,.781-.526,.297-.12,.604-.182,.922-.182,.323,0,.63,.063,.922,.182,.297,.125,.557,.297,.781,.526,.229,.224,.401,.484,.526,.781,.12,.297,.182,.604,.182,.927Z"/></svg>