<?xml version="1.0" encoding="UTF-8"?><svg id="Laag_1" xmlns="http://www.w3.org/2000/svg" xmlns:xlink="http://www.w3.org/1999/xlink" viewBox="0 0 127.886 24"><defs><style>.cls-1{fill:none;}.cls-2{clip-path:url(#clippath);}.cls-3{fill:#992800;}.cls-4{fill:#dcb556;}.cls-5{fill:#3c7f72;}.cls-6{clip-path:url(#clippath-1);}.cls-7{clip-path:url(#clippath-4);}.cls-8{clip-path:url(#clippath-3);}.cls-9{clip-path:url(#clippath-2);}.cls-10{clip-path:url(#clippath-7);}.cls-11{clip-path:url(#clippath-8);}.cls-12{clip-path:url(#clippath-6);}.cls-13{clip-path:url(#clippath-5);}.cls-14{clip-path:url(#clippath-9);}.cls-15{clip-path:url(#clippath-20);}.cls-16{clip-path:url(#clippath-21);}.cls-17{clip-path:url(#clippath-24);}.cls-18{clip-path:url(#clippath-23);}.cls-19{clip-path:url(#clippath-22);}.cls-20{clip-path:url(#clippath-25);}.cls-21{clip-path:url(#clippath-44);}.cls-22{clip-path:url(#clippath-45);}.cls-23{clip-path:url(#clippath-40);}.cls-24{clip-path:url(#clippath-42);}.cls-25{clip-path:url(#clippath-41);}.cls-26{clip-path:url(#clippath-47);}.cls-27{clip-path:url(#clippath-43);}.cls-28{clip-path:url(#clippath-46);}.cls-29{clip-path:url(#clippath-48);}.cls-30{clip-path:url(#clippath-49);}.cls-31{clip-path:url(#clippath-27);}.cls-32{clip-path:url(#clippath-28);}.cls-33{clip-path:url(#clippath-26);}.cls-34{clip-path:url(#clippath-29);}.cls-35{clip-path:url(#clippath-34);}.cls-36{clip-path:url(#clippath-35);}.cls-37{clip-path:url(#clippath-36);}.cls-38{clip-path:url(#clippath-37);}.cls-39{clip-path:url(#clippath-39);}.cls-40{clip-path:url(#clippath-33);}.cls-41{clip-path:url(#clippath-32);}.cls-42{clip-path:url(#clippath-30);}.cls-43{clip-path:url(#clippath-38);}.cls-44{clip-path:url(#clippath-31);}.cls-45{clip-path:url(#clippath-50);}.cls-46{clip-path:url(#clippath-51);}.cls-47{clip-path:url(#clippath-52);}.cls-48{clip-path:url(#clippath-14);}.cls-49{clip-path:url(#clippath-13);}.cls-50{clip-path:url(#clippath-12);}.cls-51{clip-path:url(#clippath-10);}.cls-52{clip-path:url(#clippath-15);}.cls-53{clip-path:url(#clippath-17);}.cls-54{clip-path:url(#clippath-16);}.cls-55{clip-path:url(#clippath-19);}.cls-56{clip-path:url(#clippath-11);}.cls-57{clip-path:url(#clippath-18);}</style><clipPath id="clippath"><rect class="cls-1" x="106.552" width="20" height="17.333"/></clipPath><clipPath id="clippath-1"><rect class="cls-1" x="90.993" y="-9.893" width="26.918" height="44.866" transform="translate(77.854 114.325) rotate(-82.201)"/></clipPath><clipPath id="clippath-2"><rect class="cls-1" x="90.993" y="-9.893" width="26.918" height="44.866" transform="translate(77.854 114.325) rotate(-82.201)"/></clipPath><clipPath id="clippath-3"><rect class="cls-1" x="106.552" width="21.333" height="17.333"/></clipPath><clipPath id="clippath-4"><rect class="cls-1" x="90.993" y="-9.893" width="26.918" height="44.866" transform="translate(77.854 114.325) rotate(-82.201)"/></clipPath><clipPath id="clippath-5"><rect class="cls-1" x="90.993" y="-9.893" width="26.918" height="44.866" transform="translate(77.854 114.325) rotate(-82.201)"/></clipPath><clipPath id="clippath-6"><rect class="cls-1" x="113.219" y="2.667" width="8" height="5.333"/></clipPath><clipPath id="clippath-7"><rect class="cls-1" x="90.993" y="-9.893" width="26.918" height="44.866" transform="translate(77.854 114.325) rotate(-82.201)"/></clipPath><clipPath id="clippath-8"><rect class="cls-1" x="90.993" y="-9.893" width="26.918" height="44.866" transform="translate(77.854 114.325) rotate(-82.201)"/></clipPath><clipPath id="clippath-9"><rect class="cls-1" x="111.886" y="1.333" width="6.667" height="6.667"/></clipPath><clipPath id="clippath-10"><rect class="cls-1" x="90.993" y="-9.893" width="26.918" height="44.866" transform="translate(77.854 114.325) rotate(-82.201)"/></clipPath><clipPath id="clippath-11"><rect class="cls-1" x="90.993" y="-9.893" width="26.918" height="44.866" transform="translate(77.854 114.325) rotate(-82.201)"/></clipPath><clipPath id="clippath-12"><rect class="cls-1" x="110.552" y="1.333" width="5.333" height="8"/></clipPath><clipPath id="clippath-13"><rect class="cls-1" x="90.993" y="-9.893" width="26.918" height="44.866" transform="translate(77.854 114.325) rotate(-82.201)"/></clipPath><clipPath id="clippath-14"><rect class="cls-1" x="90.993" y="-9.893" width="26.918" height="44.866" transform="translate(77.854 114.325) rotate(-82.201)"/></clipPath><clipPath id="clippath-15"><rect class="cls-1" x="109.219" y="4" width="10.667" height="8"/></clipPath><clipPath id="clippath-16"><rect class="cls-1" x="90.993" y="-9.893" width="26.918" height="44.866" transform="translate(77.854 114.325) rotate(-82.201)"/></clipPath><clipPath id="clippath-17"><rect class="cls-1" x="90.993" y="-9.893" width="26.918" height="44.866" transform="translate(77.854 114.325) rotate(-82.201)"/></clipPath><clipPath id="clippath-18"><rect class="cls-1" x="113.219" y="2.667" width="8" height="9.333"/></clipPath><clipPath id="clippath-19"><rect class="cls-1" x="90.993" y="-9.893" width="26.918" height="44.866" transform="translate(77.854 114.325) rotate(-82.201)"/></clipPath><clipPath id="clippath-20"><rect class="cls-1" x="90.993" y="-9.893" width="26.918" height="44.866" transform="translate(77.854 114.325) rotate(-82.201)"/></clipPath><clipPath id="clippath-21"><rect class="cls-1" x="117.219" y="2.667" width="5.333" height="10.667"/></clipPath><clipPath id="clippath-22"><rect class="cls-1" x="90.993" y="-9.893" width="26.918" height="44.866" transform="translate(77.854 114.325) rotate(-82.201)"/></clipPath><clipPath id="clippath-23"><rect class="cls-1" x="90.993" y="-9.893" width="26.918" height="44.866" transform="translate(77.854 114.325) rotate(-82.201)"/></clipPath><clipPath id="clippath-24"><rect class="cls-1" x="109.219" y="8" width="8" height="6.667"/></clipPath><clipPath id="clippath-25"><rect class="cls-1" x="90.993" y="-9.893" width="26.918" height="44.866" transform="translate(77.854 114.325) rotate(-82.201)"/></clipPath><clipPath id="clippath-26"><rect class="cls-1" x="90.993" y="-9.893" width="26.918" height="44.866" transform="translate(77.854 114.325) rotate(-82.201)"/></clipPath><clipPath id="clippath-27"><rect class="cls-1" x="110.552" y="8" width="9.333" height="6.667"/></clipPath><clipPath id="clippath-28"><rect class="cls-1" x="90.993" y="-9.893" width="26.918" height="44.866" transform="translate(77.854 114.325) rotate(-82.201)"/></clipPath><clipPath id="clippath-29"><rect class="cls-1" x="90.993" y="-9.893" width="26.918" height="44.866" transform="translate(77.854 114.325) rotate(-82.201)"/></clipPath><clipPath id="clippath-30"><rect class="cls-1" x="111.886" y="9.333" width="12" height="5.333"/></clipPath><clipPath id="clippath-31"><rect class="cls-1" x="90.993" y="-9.893" width="26.918" height="44.866" transform="translate(77.854 114.325) rotate(-82.201)"/></clipPath><clipPath id="clippath-32"><rect class="cls-1" x="90.993" y="-9.893" width="26.918" height="44.866" transform="translate(77.854 114.325) rotate(-82.201)"/></clipPath><clipPath id="clippath-33"><rect class="cls-1" x="113.219" y="10.667" width="12" height="5.333"/></clipPath><clipPath id="clippath-34"><rect class="cls-1" x="90.993" y="-9.893" width="26.918" height="44.866" transform="translate(77.854 114.325) rotate(-82.201)"/></clipPath><clipPath id="clippath-35"><rect class="cls-1" x="90.993" y="-9.893" width="26.918" height="44.866" transform="translate(77.854 114.325) rotate(-82.201)"/></clipPath><clipPath id="clippath-36"><rect class="cls-1" x="107.886" y="8" width="9.333" height="6.667"/></clipPath><clipPath id="clippath-37"><rect class="cls-1" x="90.993" y="-9.893" width="26.918" height="44.866" transform="translate(77.854 114.325) rotate(-82.201)"/></clipPath><clipPath id="clippath-38"><rect class="cls-1" x="90.993" y="-9.893" width="26.918" height="44.866" transform="translate(77.854 114.325) rotate(-82.201)"/></clipPath><clipPath id="clippath-39"><rect class="cls-1" x="109.219" y="9.333" width="6.667" height="6.667"/></clipPath><clipPath id="clippath-40"><rect class="cls-1" x="90.993" y="-9.893" width="26.918" height="44.866" transform="translate(77.854 114.325) rotate(-82.201)"/></clipPath><clipPath id="clippath-41"><rect class="cls-1" x="90.993" y="-9.893" width="26.918" height="44.866" transform="translate(77.854 114.325) rotate(-82.201)"/></clipPath><clipPath id="clippath-42"><rect class="cls-1" x="121.219" y="5.333" width="2.667" height="5.333"/></clipPath><clipPath id="clippath-43"><rect class="cls-1" x="90.993" y="-9.893" width="26.918" height="44.866" transform="translate(77.854 114.325) rotate(-82.201)"/></clipPath><clipPath id="clippath-44"><rect class="cls-1" x="90.993" y="-9.893" width="26.918" height="44.866" transform="translate(77.854 114.325) rotate(-82.201)"/></clipPath><clipPath id="clippath-45"><rect class="cls-1" x="79.886" y="4" width="48" height="20"/></clipPath><clipPath id="clippath-46"><rect class="cls-1" x="90.993" y="-9.893" width="26.918" height="44.866" transform="translate(77.854 114.325) rotate(-82.201)"/></clipPath><clipPath id="clippath-47"><rect class="cls-1" x="90.993" y="-9.893" width="26.918" height="44.866" transform="translate(77.854 114.325) rotate(-82.201)"/></clipPath><clipPath id="clippath-48"><rect class="cls-1" x="92.296" y="-8.356" width="23.914" height="44.895" transform="translate(76.141 115.467) rotate(-82.199)"/></clipPath><clipPath id="clippath-49"><rect class="cls-1" x="92.322" y="-8.377" width="23.843" height="44.866" transform="translate(76.16 115.425) rotate(-82.194)"/></clipPath><clipPath id="clippath-50"><rect class="cls-1" x="121.219" y="2.667" width="4" height="6.667"/></clipPath><clipPath id="clippath-51"><rect class="cls-1" x="90.993" y="-9.893" width="26.918" height="44.866" transform="translate(77.854 114.325) rotate(-82.201)"/></clipPath><clipPath id="clippath-52"><rect class="cls-1" x="90.993" y="-9.893" width="26.918" height="44.866" transform="translate(77.854 114.325) rotate(-82.201)"/></clipPath></defs><path class="cls-5" d="M2.583,16.456c1.406,0,2.786-.063,3.349-1.339,1.365-3.115-3.865-9.573-2.594-9.854h.068c.906,0,1.167,4.604,3.047,4.604,1.62,0,2.052-4.625,2.807-4.625,.042,0,.063,0,.109,.021,.516,.302-2.141,6.333-1.99,8.859,.068,1.167,.349,2.333,3.068,2.333s2.875-2.073,2.833-2.594c-.219-2.526-1.557-3.089-1.688-5.464-.063-1.016,1.036-6.937-2.224-6.937-2.422,0-2.531,4.104-3.005,4.104-.495,0-1.276-4.104-3.026-4.104C.119,1.461,1.156,7.232,.984,8.961,.812,10.664,.166,12.654,.015,14.123c-.13,1.229,.557,2.333,2.568,2.333Z"/><path class="cls-5" d="M16.488,16.456h2.271c3,0,2.052-3.714,.948-6.87-.865-2.443-.495-3.74-.797-4.495-.172-.411-.583-.776-1.208-.776-.953,0-1.297,.536-1.365,.969-.26,1.75,.24,2.635-.714,5.448-1.469,4.318-.432,5.724,.865,5.724Zm1.146-12.922c.776,0,1.406-.536,1.406-1.208,0-.693-.63-1.229-1.406-1.229-.755,0-1.38,.536-1.38,1.229,0,.672,.625,1.208,1.38,1.208Z"/><path class="cls-5" d="M22.449,13.326c.26,1.771,1.964,3.13,4.193,3.13,2.115,0,4.234-.755,4.599-3.089,.37-2.422-.172-2.854-.281-6.849-.021-.693-.109-2.203-1.401-2.203h-.068c-1.078,.042-1.448,.755-1.359,2.031,.083,1.318-.219,2.807-.453,3.323-.281,.609-.609,.802-.953,.802-.516,0-1.146-.432-1.943-.432-.411,0-.865,.13-1.385,.474-.948,.651-1.078,1.88-.948,2.812ZM28.085,2.326c0,.672,.63,1.208,1.406,1.208s1.406-.536,1.406-1.208c0-.693-.63-1.229-1.406-1.229s-1.406,.536-1.406,1.229Z"/><path class="cls-5" d="M35.859,16.456c2.203,0,2.724-.927,2.875-1.661,.411-1.969-1.167-4.151-1.667-6.292-.13-.583-.776-2.484,0-2.526,.563-.021,2.984,3.609,2.682,7.583-.13,1.688,.818,2.896,2.849,2.896,1.578,0,2.38-1.057,2.422-2.354,.109-3.156-.823-5.141-1.208-11.495-.068-1.057-.891-1.146-1.214-1.146-.714,0-1.078,.411-1.078,1.146,0,2.828-.089,3.693-.349,3.693-.104,0-.234-.125-.406-.323-.281-.323-2.833-4.516-5.49-4.516-1.557,0-.906,2.896-1.078,5.401-.24,3.37-1.036,5.141-1.193,7.089-.125,1.771,1.578,2.505,2.854,2.505Z"/><path class="cls-5" d="M56.438,16.456h.667c2.203,0,2.25-2.245,2.745-2.245,.474,0,.24,2.245,2.682,2.245,.365,0,.151-.021,.323-.021,5.354,0,1.531-6.589,2.094-9.073,.281-1.214,1.167-3.76,.563-5.057-.281-.625-.776-.844-1.208-.844-.089,0-.177,0-.26,.021-1.859,.411-1.557,6.745-2.505,6.745-.651,0-.068-4.625-1.688-4.625-1.641,0-.948,4.365-1.792,4.365-.823,0-.563-6.484-3.156-6.484-.865,0-1.448,.521-1.427,1.385,.047,1.661,1.578,3.198,1.104,6.094-.26,1.62-2.182,7.495,1.859,7.495Z"/><path class="cls-5" d="M68.245,13.951c.609,1.469,2.031,2.505,3.026,2.505h1.859c4.385,0,4.146-6.396,1.146-6.396h-.219c-.104,0-.214,.021-.323,.021-1.229,0-1.943-.688-1.943-1.641,0-1.51,3.479,.26,3.479-1.88s-3.526-1.167-3.479-2.052c0-.214,.281-.26,.646-.26,.411,0,.932,.047,1.406,.047,.667,0,1.276-.109,1.427-.609,.344-1.141-1.063-2.224-3.068-2.224h-.672c-1.188,0-2.443,.953-2.984,1.99-1.359,2.594-1.594,7.302-.302,10.5Z"/><path class="cls-5" d="M81.159,16.456c2.25,0,2.896-1.125,2.875-2.354-.021-1.771-1.427-2.807-1.187-3.438,.021-.063,.062-.083,.109-.083,.432,0,1.88,2.917,2.266,4.406,.219,.797,.63,1.469,2.292,1.469,.865,0,2.312-.021,2.443-1.469,.234-2.615-2.354-4.302-4.062-4.776,1.427-.474,2.01-1.75,2.094-3.26,.24-4.234-2.396-5.49-4.344-5.49-1.573,0-1.813,.302-2.073,.323-.151,0-.776-.323-1.297-.323-2.073,.021-1.531,3.63-1.422,4.646,.104,1.016,.214,2.141,.083,3.177-.172,1.427-.823,3.109-.823,4.495,0,1.099,.177,2.677,3.047,2.677Zm2.484-12.964h.047c.495,0,.969,.714,1.167,1.469,.193,.802,.083,1.641-.63,1.792-.063,.026-.104,.026-.151,.026-1.167,0-1.401-3.177-.432-3.286Z"/><path class="cls-5" d="M92.648,15.852c.604,.453,1.25,.583,1.984,.583,1.708,0,2.25-.714,2.552-1.208,.927-1.578,.281-3.349-.583-5.078,.172,.021,.323,.042,.432,.042,2.135,0,1.552,1.208,1.552,2.896s-.323,3.37,1.75,3.37h1.255c3.135,0,1.969-2.505,1.385-3.932-1.146-2.807-2.25-4.427-4.302-4.427-.26,0-.516,.021-.797,.063,.604-1.49,2.568-2.698,3.24-4.255,.234-.563-.021-1.729-.521-2.12-.323-.234-.734-.344-1.078-.344-.281,0-.542,.068-.672,.13-1.208,.604-2.333,3.5-2.698,4.474-.089,.234-.219,.453-.37,.667,.13-2.245,.734-5.25-1.448-5.25-.667,0-1.146,.37-1.359,.734-.927,1.578,.474,3.932,.281,5.661-.281,2.443-3.198,6.052-.604,7.995Z"/><g class="cls-2"><g class="cls-6"><g class="cls-9"><path class="cls-4" d="M115.62,.672c-1.547-.281-3.182,.224-4.448,1.177-1.266,.948-2.188,2.307-2.823,3.766-1,2.292-1.286,5.094,.036,7.203,.349,.557,.792,1.042,1.276,1.484,1.786,1.63,4.115,2.641,6.516,2.844,2.406,.203,4.87-.401,6.922-1.677,.573-.359,1.125-.776,1.557-1.297,.495-.589,.833-1.302,1.089-2.031,.62-1.755,.792-3.75,.042-5.443-.328-.745-.823-1.396-1.323-2.031-.573-.724-1.182-1.448-1.969-1.938-.661-.411-1.422-.635-2.177-.818-1.323-.318-2.667-.516-4.021-.589l-.677-.651"/></g></g></g><g class="cls-8"><g class="cls-7"><g class="cls-13"><path class="cls-3" d="M116.099,.635c-1.734-.307-3.536,.24-4.917,1.318-1.396,1.089-2.385,2.677-2.99,4.333-.573,1.557-.818,3.313-.417,4.943,.438,1.781,1.724,3.12,3.193,4.125,3.073,2.094,7.031,2.51,10.505,1.229,1.688-.625,3.432-1.604,4.313-3.245,.443-.813,.729-1.724,.901-2.635,.167-.891,.203-1.813,.042-2.703-.161-.896-.547-1.708-1.057-2.453-.536-.776-1.146-1.563-1.839-2.208-.714-.661-1.563-1.063-2.49-1.323-1-.281-2.026-.469-3.052-.599-.521-.063-1.042-.109-1.568-.141-.083-.005-.255-.005-.313,.073-.057,.073,.026,.099,.099,.104,1.016,.063,2.031,.182,3.031,.38,.943,.182,1.917,.385,2.771,.833,.802,.417,1.427,1.083,1.995,1.781,.573,.698,1.156,1.427,1.536,2.26,.724,1.578,.63,3.417,.135,5.047-.26,.859-.615,1.714-1.182,2.411-.573,.708-1.359,1.224-2.146,1.651-1.531,.828-3.25,1.286-4.984,1.318-1.766,.031-3.526-.396-5.099-1.203-.797-.406-1.542-.911-2.214-1.505-.646-.568-1.234-1.214-1.635-1.979-.74-1.411-.807-3.089-.505-4.635,.615-3.156,2.911-6.74,6.365-7.063,.401-.042,.807-.021,1.208,.047,.099,.016,.24,.016,.328-.042,.063-.042,.083-.104-.016-.12"/></g></g></g><g class="cls-12"><g class="cls-10"><g class="cls-11"><path class="cls-3" d="M120.448,2.719c-2.229,.172-4.328,1.469-5.542,3.354-.339,.531-.609,1.109-.797,1.714-.063,.203,.406,.198,.458,.016,.62-2.016,2.224-3.688,4.188-4.417,.557-.208,1.135-.333,1.729-.38,.078-.01,.224-.073,.214-.177-.016-.109-.172-.115-.25-.109"/></g></g></g><g class="cls-14"><g class="cls-51"><g class="cls-56"><path class="cls-3" d="M117.969,2.12c-2.146,.703-4.224,1.958-5.302,4.036-.297,.568-.5,1.177-.604,1.807-.01,.052,.443,.057,.464-.063,.474-2.932,3.047-4.839,5.693-5.703,.052-.021,.141-.047,.073-.099-.068-.042-.255,0-.323,.021"/></g></g></g><g class="cls-50"><g class="cls-49"><g class="cls-48"><path class="cls-3" d="M115.479,1.724c-2.026,.729-3.646,2.401-4.344,4.453-.193,.578-.307,1.177-.344,1.786-.01,.167,.453,.13,.464-.057,.12-2.042,1.229-3.974,2.875-5.156,.464-.328,.969-.599,1.5-.792,.297-.104,.068-.313-.151-.234"/></g></g></g><g class="cls-52"><g class="cls-54"><g class="cls-53"><path class="cls-3" d="M110.792,5.12c1.266-.891,2.953-.547,4.266,.031,1.438,.635,2.672,1.714,3.354,3.151,.37,.781,.563,1.641,.542,2.505,0,.125,.464,.094,.464-.057,.078-3.469-3.161-6.214-6.448-6.37-.88-.042-1.792,.125-2.526,.641-.203,.146,.245,.172,.349,.099"/></g></g></g><g class="cls-57"><g class="cls-55"><g class="cls-15"><path class="cls-3" d="M114.287,3.276c1.411,.406,2.87,.865,4.021,1.823,.484,.411,.911,.896,1.208,1.464,.328,.63,.458,1.323,.484,2.031,.026,.823-.073,1.641-.115,2.458-.01,.224,.453,.172,.469-.057,.073-1.479,.328-3.031-.323-4.417-.589-1.255-1.745-2.146-2.969-2.719-.828-.385-1.703-.656-2.578-.906-.229-.068-.495,.24-.198,.323"/></g></g></g><g class="cls-16"><g class="cls-19"><g class="cls-18"><path class="cls-3" d="M117.412,3.052c1.109,.724,2.151,1.609,2.818,2.776,.698,1.219,.854,2.599,.432,3.943-.25,.802-.646,1.547-1.042,2.286-.042,.083,.396,.099,.453-.016,.682-1.281,1.401-2.667,1.292-4.167-.099-1.313-.781-2.521-1.682-3.448-.547-.568-1.172-1.047-1.828-1.474-.078-.052-.198-.042-.292-.016-.021,0-.219,.068-.151,.115"/></g></g></g><g class="cls-17"><g class="cls-20"><g class="cls-33"><path class="cls-3" d="M116.86,8.792c-2.047,.583-3.927,1.76-5.359,3.349-.401,.448-.771,.927-1.099,1.432-.146,.224,.307,.297,.422,.12,1.12-1.724,2.714-3.109,4.563-3.984,.526-.25,1.078-.453,1.641-.609,.094-.031,.182-.13,.135-.229-.052-.104-.203-.109-.302-.078"/></g></g></g><g class="cls-31"><g class="cls-32"><g class="cls-34"><path class="cls-3" d="M119.063,9.328c-2.286,.802-4.422,2.021-6.266,3.599-.516,.443-1.01,.911-1.479,1.406-.057,.063,.156,.073,.172,.073,.094-.005,.214-.021,.281-.089,1.625-1.708,3.557-3.115,5.677-4.12,.609-.292,1.229-.547,1.865-.766,.063-.026,.146-.063,.073-.115-.068-.052-.255-.01-.323,.01"/></g></g></g><g class="cls-42"><g class="cls-44"><g class="cls-41"><path class="cls-3" d="M123.433,9.432c-3,.62-5.891,1.776-8.49,3.422-.74,.464-1.458,.974-2.146,1.516-.078,.063,.052,.078,.094,.083,.089,.005,.24-.005,.313-.068,2.365-1.865,5.057-3.297,7.917-4.203,.807-.255,1.625-.469,2.453-.641,.047-.01,.182-.036,.151-.104-.026-.057-.25-.016-.292-.005"/></g></g></g><g class="cls-40"><g class="cls-35"><g class="cls-36"><path class="cls-3" d="M124.808,10.984c-3.057,.594-6.021,1.667-8.755,3.177-.776,.432-1.531,.896-2.266,1.391-.255,.172,.083,.359,.271,.234,2.536-1.719,5.333-3.031,8.271-3.885,.833-.24,1.672-.443,2.516-.609,.089-.016,.229-.068,.214-.182-.016-.109-.167-.141-.25-.125"/></g></g></g><g class="cls-37"><g class="cls-38"><g class="cls-43"><path class="cls-3" d="M109.396,8.76c2.484,.089,4.781,1.464,6.063,3.604,.344,.573,.609,1.188,.797,1.828,.052,.198,.516,.125,.464-.057-.708-2.469-2.583-4.453-5-5.266-.719-.245-1.474-.38-2.234-.411-.094,0-.25,.036-.276,.141-.021,.109,.104,.156,.188,.161"/></g></g></g><g class="cls-39"><g class="cls-23"><g class="cls-25"><path class="cls-3" d="M109.552,10.224c2.479,.25,4.505,2.198,4.938,4.661,.042,.219,.505,.156,.464-.057-.219-1.25-.823-2.411-1.734-3.292-.969-.938-2.25-1.505-3.583-1.641-.255-.026-.391,.297-.083,.328"/></g></g></g><g class="cls-24"><g class="cls-27"><g class="cls-21"><path class="cls-3" d="M121.933,5.776c1.01,1.135,.839,2.781,.677,4.177-.031,.25,.432,.25,.458,.036,.177-1.51,.328-3.214-.755-4.438-.141-.161-.557,.021-.38,.224"/></g></g></g><g class="cls-22"><g class="cls-28"><g class="cls-26"><g class="cls-29"><g class="cls-30"><path class="cls-4" d="M122.865,4.844c.969-.151,1.828,.635,2.37,1.354,.609,.813,1.042,1.807,1.318,2.786,.505,1.813,.234,3.693-.682,5.333-.875,1.563-2.245,2.849-3.839,3.646-1.807,.906-3.839,1.219-5.833,1.177-2.167-.042-4.26-.531-6.365-.995-2.036-.448-4.172-.859-6.26-.531-.828,.13-1.646,.365-2.375,.776-.76,.427-1.333,1.036-1.755,1.802-.219,.401-.422,.818-.729,1.151-.359,.385-.839,.563-1.344,.646-1.109,.188-2.26,.177-3.37,.026-1.115-.151-2.193-.458-3.229-.896-.979-.406-1.948-.865-3.026-.911-1.005-.047-1.995,.208-2.932,.542-.995,.354-1.974,.781-2.922,1.25-.495,.245-.979,.5-1.458,.766-.089,.052,.068,.073,.094,.073,.099,.01,.224-.01,.313-.063,.995-.557,2.021-1.057,3.068-1.495,1.005-.422,2.068-.865,3.167-.932,1.151-.073,2.193,.417,3.229,.854,1.031,.438,2.104,.755,3.214,.922,1.083,.156,2.188,.177,3.276,.068,.911-.094,1.896-.255,2.505-1.026,.286-.37,.479-.802,.719-1.208,.224-.385,.5-.734,.833-1.026,.672-.589,1.521-.948,2.38-1.13,2.188-.464,4.495,.073,6.63,.552,2.073,.464,4.135,.901,6.266,.927,1.969,.021,3.969-.266,5.786-1.057,1.661-.724,3.12-1.917,4.12-3.448,.99-1.521,1.469-3.359,1.141-5.167-.182-1.005-.568-2-1.083-2.88-.464-.792-1.109-1.573-1.99-1.901-.401-.146-.828-.172-1.25-.104-.031,.005-.24,.031-.224,.089,.016,.063,.203,.036,.24,.031"/></g></g></g></g></g><g class="cls-45"><g class="cls-46"><g class="cls-47"><path class="cls-3" d="M121.474,4.12c.974,.365,1.755,1.089,2.333,1.948,.615,.901,1.089,2.063,.76,3.161-.036,.141,.417,.12,.458-.005,.328-1.125-.12-2.281-.74-3.214-.594-.896-1.411-1.656-2.422-2.036-.104-.036-.224-.031-.323,.01-.042,.016-.172,.099-.068,.135"/></g></g></g></svg>